<?xml version="1.0" encoding="utf-8" standalone="no"?>
<!DOCTYPE svg PUBLIC "-//W3C//DTD SVG 1.1//EN"
  "http://www.w3.org/Graphics/SVG/1.1/DTD/svg11.dtd">
<!-- Created with matplotlib (https://matplotlib.org/) -->
<svg height="340.704606pt" version="1.1" viewBox="0 0 459.638679 340.704606" width="459.638679pt" xmlns="http://www.w3.org/2000/svg" xmlns:xlink="http://www.w3.org/1999/xlink">
 <metadata>
  <rdf:RDF xmlns:cc="http://creativecommons.org/ns#" xmlns:dc="http://purl.org/dc/elements/1.1/" xmlns:rdf="http://www.w3.org/1999/02/22-rdf-syntax-ns#">
   <cc:Work>
    <dc:type rdf:resource="http://purl.org/dc/dcmitype/StillImage"/>
    <dc:date>2024-02-28T17:47:02.759370</dc:date>
    <dc:format>image/svg+xml</dc:format>
    <dc:creator>
     <cc:Agent>
      <dc:title>Matplotlib v3.3.4, https://matplotlib.org/</dc:title>
     </cc:Agent>
    </dc:creator>
   </cc:Work>
  </rdf:RDF>
 </metadata>
 <defs>
  <style type="text/css">*{stroke-linecap:butt;stroke-linejoin:round;}</style>
 </defs>
 <g id="figure_1">
  <g id="patch_1">
   <path d="M 0 340.704606 
L 459.638679 340.704606 
L 459.638679 -0 
L 0 -0 
z
" style="fill:#ffffff;"/>
  </g>
  <g id="axes_1">
   <g id="patch_2">
    <path d="M 90.144375 278.988356 
L 447.264375 278.988356 
L 447.264375 12.876356 
L 90.144375 12.876356 
z
" style="fill:#ffffff;"/>
   </g>
   <g id="matplotlib.axis_1">
    <g id="xtick_1">
     <g id="line2d_1">
      <defs>
       <path d="M 0 0 
L 0 6 
" id="ma5aa204e27" style="stroke:#262626;stroke-width:1.25;"/>
      </defs>
      <g>
       <use style="fill:#262626;stroke:#262626;stroke-width:1.25;" x="106.377102" xlink:href="#ma5aa204e27" y="278.988356"/>
      </g>
     </g>
     <g id="text_1">
      <!-- 0.00 -->
      <g style="fill:#262626;" transform="translate(84.970071 304.431481)scale(0.22 -0.22)">
       <defs>
        <path d="M 51.703125 34.421875 
Q 51.703125 17.1875 45.625 8.09375 
Q 39.546875 -0.984375 27.6875 -0.984375 
Q 15.828125 -0.984375 9.859375 8.046875 
Q 3.90625 17.09375 3.90625 34.421875 
Q 3.90625 52.15625 9.6875 60.984375 
Q 15.484375 69.828125 27.984375 69.828125 
Q 40.140625 69.828125 45.921875 60.890625 
Q 51.703125 51.953125 51.703125 34.421875 
z
M 42.78125 34.421875 
Q 42.78125 49.3125 39.328125 56 
Q 35.890625 62.703125 27.984375 62.703125 
Q 19.875 62.703125 16.328125 56.109375 
Q 12.796875 49.515625 12.796875 34.421875 
Q 12.796875 19.78125 16.375 12.984375 
Q 19.96875 6.203125 27.78125 6.203125 
Q 35.546875 6.203125 39.15625 13.125 
Q 42.78125 20.0625 42.78125 34.421875 
z
" id="LiberationSans-48"/>
        <path d="M 9.125 0 
L 9.125 10.6875 
L 18.65625 10.6875 
L 18.65625 0 
z
" id="LiberationSans-46"/>
       </defs>
       <use xlink:href="#LiberationSans-48"/>
       <use x="55.615234" xlink:href="#LiberationSans-46"/>
       <use x="83.398438" xlink:href="#LiberationSans-48"/>
       <use x="139.013672" xlink:href="#LiberationSans-48"/>
      </g>
     </g>
    </g>
    <g id="xtick_2">
     <g id="line2d_2">
      <g>
       <use style="fill:#262626;stroke:#262626;stroke-width:1.25;" x="187.540739" xlink:href="#ma5aa204e27" y="278.988356"/>
      </g>
     </g>
     <g id="text_2">
      <!-- 0.25 -->
      <g style="fill:#262626;" transform="translate(166.133707 304.431481)scale(0.22 -0.22)">
       <defs>
        <path d="M 5.03125 0 
L 5.03125 6.203125 
Q 7.515625 11.921875 11.109375 16.28125 
Q 14.703125 20.65625 18.65625 24.1875 
Q 22.609375 27.734375 26.484375 30.765625 
Q 30.375 33.796875 33.5 36.8125 
Q 36.625 39.84375 38.546875 43.15625 
Q 40.484375 46.484375 40.484375 50.6875 
Q 40.484375 56.34375 37.15625 59.46875 
Q 33.84375 62.59375 27.9375 62.59375 
Q 22.3125 62.59375 18.671875 59.546875 
Q 15.046875 56.5 14.40625 50.984375 
L 5.421875 51.8125 
Q 6.390625 60.0625 12.421875 64.9375 
Q 18.453125 69.828125 27.9375 69.828125 
Q 38.328125 69.828125 43.921875 64.921875 
Q 49.515625 60.015625 49.515625 50.984375 
Q 49.515625 46.96875 47.671875 43.015625 
Q 45.84375 39.0625 42.234375 35.109375 
Q 38.625 31.15625 28.421875 22.859375 
Q 22.796875 18.265625 19.46875 14.578125 
Q 16.15625 10.890625 14.703125 7.46875 
L 50.59375 7.46875 
L 50.59375 0 
z
" id="LiberationSans-50"/>
        <path d="M 51.421875 22.40625 
Q 51.421875 11.53125 44.953125 5.265625 
Q 38.484375 -0.984375 27 -0.984375 
Q 17.390625 -0.984375 11.46875 3.21875 
Q 5.5625 7.421875 4 15.375 
L 12.890625 16.40625 
Q 15.671875 6.203125 27.203125 6.203125 
Q 34.28125 6.203125 38.28125 10.46875 
Q 42.28125 14.75 42.28125 22.21875 
Q 42.28125 28.71875 38.25 32.71875 
Q 34.234375 36.71875 27.390625 36.71875 
Q 23.828125 36.71875 20.75 35.59375 
Q 17.671875 34.46875 14.59375 31.78125 
L 6 31.78125 
L 8.296875 68.796875 
L 47.40625 68.796875 
L 47.40625 61.328125 
L 16.3125 61.328125 
L 14.984375 39.5 
Q 20.703125 43.890625 29.203125 43.890625 
Q 39.359375 43.890625 45.390625 37.9375 
Q 51.421875 31.984375 51.421875 22.40625 
z
" id="LiberationSans-53"/>
       </defs>
       <use xlink:href="#LiberationSans-48"/>
       <use x="55.615234" xlink:href="#LiberationSans-46"/>
       <use x="83.398438" xlink:href="#LiberationSans-50"/>
       <use x="139.013672" xlink:href="#LiberationSans-53"/>
      </g>
     </g>
    </g>
    <g id="xtick_3">
     <g id="line2d_3">
      <g>
       <use style="fill:#262626;stroke:#262626;stroke-width:1.25;" x="268.704375" xlink:href="#ma5aa204e27" y="278.988356"/>
      </g>
     </g>
     <g id="text_3">
      <!-- 0.50 -->
      <g style="fill:#262626;" transform="translate(247.297344 304.431481)scale(0.22 -0.22)">
       <use xlink:href="#LiberationSans-48"/>
       <use x="55.615234" xlink:href="#LiberationSans-46"/>
       <use x="83.398438" xlink:href="#LiberationSans-53"/>
       <use x="139.013672" xlink:href="#LiberationSans-48"/>
      </g>
     </g>
    </g>
    <g id="xtick_4">
     <g id="line2d_4">
      <g>
       <use style="fill:#262626;stroke:#262626;stroke-width:1.25;" x="349.868011" xlink:href="#ma5aa204e27" y="278.988356"/>
      </g>
     </g>
     <g id="text_4">
      <!-- 0.75 -->
      <g style="fill:#262626;" transform="translate(328.46098 304.431481)scale(0.22 -0.22)">
       <defs>
        <path d="M 50.59375 61.671875 
Q 40.046875 45.5625 35.6875 36.421875 
Q 31.34375 27.296875 29.171875 18.40625 
Q 27 9.515625 27 0 
L 17.828125 0 
Q 17.828125 13.1875 23.40625 27.75 
Q 29 42.328125 42.09375 61.328125 
L 5.125 61.328125 
L 5.125 68.796875 
L 50.59375 68.796875 
z
" id="LiberationSans-55"/>
       </defs>
       <use xlink:href="#LiberationSans-48"/>
       <use x="55.615234" xlink:href="#LiberationSans-46"/>
       <use x="83.398438" xlink:href="#LiberationSans-55"/>
       <use x="139.013672" xlink:href="#LiberationSans-53"/>
      </g>
     </g>
    </g>
    <g id="xtick_5">
     <g id="line2d_5">
      <g>
       <use style="fill:#262626;stroke:#262626;stroke-width:1.25;" x="431.031648" xlink:href="#ma5aa204e27" y="278.988356"/>
      </g>
     </g>
     <g id="text_5">
      <!-- 1.00 -->
      <g style="fill:#262626;" transform="translate(409.624616 304.431481)scale(0.22 -0.22)">
       <defs>
        <path d="M 7.625 0 
L 7.625 7.46875 
L 25.140625 7.46875 
L 25.140625 60.40625 
L 9.625 49.3125 
L 9.625 57.625 
L 25.875 68.796875 
L 33.984375 68.796875 
L 33.984375 7.46875 
L 50.734375 7.46875 
L 50.734375 0 
z
" id="LiberationSans-49"/>
       </defs>
       <use xlink:href="#LiberationSans-49"/>
       <use x="55.615234" xlink:href="#LiberationSans-46"/>
       <use x="83.398438" xlink:href="#LiberationSans-48"/>
       <use x="139.013672" xlink:href="#LiberationSans-48"/>
      </g>
     </g>
    </g>
    <g id="text_6">
     <!-- Anomaly Score -->
     <g style="fill:#262626;" transform="translate(194.119219 328.939606)scale(0.22 -0.22)">
      <defs>
       <path d="M 56.984375 0 
L 49.125 20.125 
L 17.78125 20.125 
L 9.859375 0 
L 0.203125 0 
L 28.265625 68.796875 
L 38.875 68.796875 
L 66.5 0 
z
M 33.453125 61.765625 
L 33.015625 60.40625 
Q 31.78125 56.34375 29.390625 50 
L 20.609375 27.390625 
L 46.34375 27.390625 
L 37.5 50.09375 
Q 36.140625 53.46875 34.765625 57.71875 
z
" id="LiberationSans-65"/>
       <path d="M 40.28125 0 
L 40.28125 33.5 
Q 40.28125 38.71875 39.25 41.59375 
Q 38.234375 44.484375 35.984375 45.75 
Q 33.734375 47.015625 29.390625 47.015625 
Q 23.046875 47.015625 19.375 42.671875 
Q 15.71875 38.328125 15.71875 30.609375 
L 15.71875 0 
L 6.9375 0 
L 6.9375 41.546875 
Q 6.9375 50.78125 6.640625 52.828125 
L 14.9375 52.828125 
Q 14.984375 52.59375 15.03125 51.515625 
Q 15.09375 50.4375 15.15625 49.046875 
Q 15.234375 47.65625 15.328125 43.796875 
L 15.484375 43.796875 
Q 18.5 49.265625 22.484375 51.53125 
Q 26.46875 53.8125 32.375 53.8125 
Q 41.0625 53.8125 45.09375 49.484375 
Q 49.125 45.171875 49.125 35.203125 
L 49.125 0 
z
" id="LiberationSans-110"/>
       <path d="M 51.421875 26.46875 
Q 51.421875 12.59375 45.3125 5.796875 
Q 39.203125 -0.984375 27.59375 -0.984375 
Q 16.015625 -0.984375 10.109375 6.078125 
Q 4.203125 13.140625 4.203125 26.46875 
Q 4.203125 53.8125 27.875 53.8125 
Q 39.984375 53.8125 45.703125 47.140625 
Q 51.421875 40.484375 51.421875 26.46875 
z
M 42.1875 26.46875 
Q 42.1875 37.40625 38.9375 42.359375 
Q 35.6875 47.3125 28.03125 47.3125 
Q 20.3125 47.3125 16.859375 42.25 
Q 13.421875 37.203125 13.421875 26.46875 
Q 13.421875 16.015625 16.8125 10.765625 
Q 20.21875 5.515625 27.484375 5.515625 
Q 35.40625 5.515625 38.796875 10.59375 
Q 42.1875 15.671875 42.1875 26.46875 
z
" id="LiberationSans-111"/>
       <path d="M 37.5 0 
L 37.5 33.5 
Q 37.5 41.15625 35.390625 44.078125 
Q 33.296875 47.015625 27.828125 47.015625 
Q 22.21875 47.015625 18.9375 42.71875 
Q 15.671875 38.421875 15.671875 30.609375 
L 15.671875 0 
L 6.9375 0 
L 6.9375 41.546875 
Q 6.9375 50.78125 6.640625 52.828125 
L 14.9375 52.828125 
Q 14.984375 52.59375 15.03125 51.515625 
Q 15.09375 50.4375 15.15625 49.046875 
Q 15.234375 47.65625 15.328125 43.796875 
L 15.484375 43.796875 
Q 18.3125 49.421875 21.96875 51.609375 
Q 25.640625 53.8125 30.90625 53.8125 
Q 36.921875 53.8125 40.40625 51.421875 
Q 43.890625 49.03125 45.265625 43.796875 
L 45.40625 43.796875 
Q 48.140625 49.125 52.015625 51.46875 
Q 55.90625 53.8125 61.421875 53.8125 
Q 69.4375 53.8125 73.0625 49.46875 
Q 76.703125 45.125 76.703125 35.203125 
L 76.703125 0 
L 68.015625 0 
L 68.015625 33.5 
Q 68.015625 41.15625 65.90625 44.078125 
Q 63.8125 47.015625 58.34375 47.015625 
Q 52.59375 47.015625 49.390625 42.75 
Q 46.1875 38.484375 46.1875 30.609375 
L 46.1875 0 
z
" id="LiberationSans-109"/>
       <path d="M 20.21875 -0.984375 
Q 12.25 -0.984375 8.25 3.21875 
Q 4.25 7.421875 4.25 14.75 
Q 4.25 22.953125 9.640625 27.34375 
Q 15.046875 31.734375 27.046875 32.03125 
L 38.921875 32.234375 
L 38.921875 35.109375 
Q 38.921875 41.546875 36.1875 44.328125 
Q 33.453125 47.125 27.59375 47.125 
Q 21.6875 47.125 19 45.109375 
Q 16.3125 43.109375 15.765625 38.71875 
L 6.59375 39.546875 
Q 8.84375 53.8125 27.78125 53.8125 
Q 37.75 53.8125 42.765625 49.234375 
Q 47.796875 44.671875 47.796875 36.03125 
L 47.796875 13.28125 
Q 47.796875 9.375 48.828125 7.390625 
Q 49.859375 5.421875 52.734375 5.421875 
Q 54 5.421875 55.609375 5.765625 
L 55.609375 0.296875 
Q 52.296875 -0.484375 48.828125 -0.484375 
Q 43.953125 -0.484375 41.71875 2.078125 
Q 39.5 4.640625 39.203125 10.109375 
L 38.921875 10.109375 
Q 35.546875 4.046875 31.078125 1.53125 
Q 26.609375 -0.984375 20.21875 -0.984375 
z
M 22.21875 5.609375 
Q 27.046875 5.609375 30.8125 7.8125 
Q 34.578125 10.015625 36.75 13.84375 
Q 38.921875 17.671875 38.921875 21.734375 
L 38.921875 26.078125 
L 29.296875 25.875 
Q 23.09375 25.78125 19.890625 24.609375 
Q 16.703125 23.4375 14.984375 21 
Q 13.28125 18.5625 13.28125 14.59375 
Q 13.28125 10.296875 15.59375 7.953125 
Q 17.921875 5.609375 22.21875 5.609375 
z
" id="LiberationSans-97"/>
       <path d="M 6.734375 0 
L 6.734375 72.46875 
L 15.53125 72.46875 
L 15.53125 0 
z
" id="LiberationSans-108"/>
       <path d="M 9.328125 -20.75 
Q 5.71875 -20.75 3.265625 -20.21875 
L 3.265625 -13.625 
Q 5.125 -13.921875 7.375 -13.921875 
Q 15.578125 -13.921875 20.359375 -1.859375 
L 21.1875 0.25 
L 0.25 52.828125 
L 9.625 52.828125 
L 20.75 23.640625 
Q 21 22.953125 21.34375 22 
Q 21.6875 21.046875 23.53125 15.625 
Q 25.390625 10.203125 25.53125 9.578125 
L 28.953125 19.1875 
L 40.53125 52.828125 
L 49.8125 52.828125 
L 29.5 0 
Q 26.21875 -8.453125 23.390625 -12.578125 
Q 20.5625 -16.703125 17.109375 -18.71875 
Q 13.671875 -20.75 9.328125 -20.75 
z
" id="LiberationSans-121"/>
       <path id="LiberationSans-32"/>
       <path d="M 62.109375 19 
Q 62.109375 9.46875 54.65625 4.234375 
Q 47.21875 -0.984375 33.6875 -0.984375 
Q 8.546875 -0.984375 4.546875 16.5 
L 13.578125 18.3125 
Q 15.140625 12.109375 20.21875 9.203125 
Q 25.296875 6.296875 34.03125 6.296875 
Q 43.0625 6.296875 47.96875 9.390625 
Q 52.875 12.5 52.875 18.5 
Q 52.875 21.875 51.34375 23.96875 
Q 49.8125 26.078125 47.015625 27.4375 
Q 44.234375 28.8125 40.375 29.734375 
Q 36.53125 30.671875 31.84375 31.734375 
Q 23.6875 33.546875 19.453125 35.34375 
Q 15.234375 37.15625 12.796875 39.375 
Q 10.359375 41.609375 9.0625 44.578125 
Q 7.765625 47.5625 7.765625 51.421875 
Q 7.765625 60.25 14.53125 65.03125 
Q 21.296875 69.828125 33.890625 69.828125 
Q 45.609375 69.828125 51.8125 66.234375 
Q 58.015625 62.640625 60.5 54 
L 51.3125 52.390625 
Q 49.8125 57.859375 45.5625 60.328125 
Q 41.3125 62.796875 33.796875 62.796875 
Q 25.53125 62.796875 21.1875 60.0625 
Q 16.84375 57.328125 16.84375 51.90625 
Q 16.84375 48.734375 18.53125 46.65625 
Q 20.21875 44.578125 23.390625 43.140625 
Q 26.5625 41.703125 36.03125 39.59375 
Q 39.203125 38.875 42.359375 38.109375 
Q 45.515625 37.359375 48.390625 36.296875 
Q 51.265625 35.25 53.78125 33.828125 
Q 56.296875 32.421875 58.15625 30.375 
Q 60.015625 28.328125 61.0625 25.53125 
Q 62.109375 22.75 62.109375 19 
z
" id="LiberationSans-83"/>
       <path d="M 13.421875 26.65625 
Q 13.421875 16.109375 16.734375 11.03125 
Q 20.0625 5.953125 26.765625 5.953125 
Q 31.453125 5.953125 34.59375 8.484375 
Q 37.75 11.03125 38.484375 16.3125 
L 47.359375 15.71875 
Q 46.34375 8.109375 40.875 3.5625 
Q 35.40625 -0.984375 27 -0.984375 
Q 15.921875 -0.984375 10.078125 6.015625 
Q 4.25 13.03125 4.25 26.46875 
Q 4.25 39.796875 10.109375 46.796875 
Q 15.96875 53.8125 26.90625 53.8125 
Q 35.015625 53.8125 40.359375 49.609375 
Q 45.703125 45.40625 47.078125 38.03125 
L 38.03125 37.359375 
Q 37.359375 41.75 34.5625 44.328125 
Q 31.78125 46.921875 26.65625 46.921875 
Q 19.671875 46.921875 16.546875 42.28125 
Q 13.421875 37.640625 13.421875 26.65625 
z
" id="LiberationSans-99"/>
       <path d="M 6.9375 0 
L 6.9375 40.53125 
Q 6.9375 46.09375 6.640625 52.828125 
L 14.9375 52.828125 
Q 15.328125 43.84375 15.328125 42.046875 
L 15.53125 42.046875 
Q 17.625 48.828125 20.359375 51.3125 
Q 23.09375 53.8125 28.078125 53.8125 
Q 29.828125 53.8125 31.640625 53.328125 
L 31.640625 45.265625 
Q 29.890625 45.75 26.953125 45.75 
Q 21.484375 45.75 18.59375 41.03125 
Q 15.71875 36.328125 15.71875 27.546875 
L 15.71875 0 
z
" id="LiberationSans-114"/>
       <path d="M 13.484375 24.5625 
Q 13.484375 15.484375 17.234375 10.546875 
Q 21 5.609375 28.21875 5.609375 
Q 33.9375 5.609375 37.375 7.90625 
Q 40.828125 10.203125 42.046875 13.71875 
L 49.75 11.53125 
Q 45.015625 -0.984375 28.21875 -0.984375 
Q 16.5 -0.984375 10.375 6 
Q 4.25 12.984375 4.25 26.765625 
Q 4.25 39.84375 10.375 46.828125 
Q 16.5 53.8125 27.875 53.8125 
Q 51.171875 53.8125 51.171875 25.734375 
L 51.171875 24.5625 
z
M 42.09375 31.296875 
Q 41.359375 39.65625 37.84375 43.484375 
Q 34.328125 47.3125 27.734375 47.3125 
Q 21.34375 47.3125 17.609375 43.03125 
Q 13.875 38.765625 13.578125 31.296875 
z
" id="LiberationSans-101"/>
      </defs>
      <use xlink:href="#LiberationSans-65"/>
      <use x="66.699219" xlink:href="#LiberationSans-110"/>
      <use x="122.314453" xlink:href="#LiberationSans-111"/>
      <use x="177.929688" xlink:href="#LiberationSans-109"/>
      <use x="261.230469" xlink:href="#LiberationSans-97"/>
      <use x="316.845703" xlink:href="#LiberationSans-108"/>
      <use x="339.0625" xlink:href="#LiberationSans-121"/>
      <use x="389.0625" xlink:href="#LiberationSans-32"/>
      <use x="416.845703" xlink:href="#LiberationSans-83"/>
      <use x="483.544922" xlink:href="#LiberationSans-99"/>
      <use x="533.544922" xlink:href="#LiberationSans-111"/>
      <use x="589.160156" xlink:href="#LiberationSans-114"/>
      <use x="622.460938" xlink:href="#LiberationSans-101"/>
     </g>
    </g>
   </g>
   <g id="matplotlib.axis_2">
    <g id="ytick_1">
     <g id="line2d_6">
      <defs>
       <path d="M 0 0 
L -6 0 
" id="mfaeee36eaf" style="stroke:#262626;stroke-width:1.25;"/>
      </defs>
      <g>
       <use style="fill:#262626;stroke:#262626;stroke-width:1.25;" x="90.144375" xlink:href="#mfaeee36eaf" y="278.988356"/>
      </g>
     </g>
     <g id="text_7">
      <!-- 0 -->
      <g style="fill:#262626;" transform="translate(68.410313 286.959919)scale(0.22 -0.22)">
       <use xlink:href="#LiberationSans-48"/>
      </g>
     </g>
    </g>
    <g id="ytick_2">
     <g id="line2d_7">
      <g>
       <use style="fill:#262626;stroke:#262626;stroke-width:1.25;" x="90.144375" xlink:href="#mfaeee36eaf" y="191.049425"/>
      </g>
     </g>
     <g id="text_8">
      <!-- 500 -->
      <g style="fill:#262626;" transform="translate(43.942187 199.020988)scale(0.22 -0.22)">
       <use xlink:href="#LiberationSans-53"/>
       <use x="55.615234" xlink:href="#LiberationSans-48"/>
       <use x="111.230469" xlink:href="#LiberationSans-48"/>
      </g>
     </g>
    </g>
    <g id="ytick_3">
     <g id="line2d_8">
      <g>
       <use style="fill:#262626;stroke:#262626;stroke-width:1.25;" x="90.144375" xlink:href="#mfaeee36eaf" y="103.110494"/>
      </g>
     </g>
     <g id="text_9">
      <!-- 1000 -->
      <g style="fill:#262626;" transform="translate(31.708125 111.082056)scale(0.22 -0.22)">
       <use xlink:href="#LiberationSans-49"/>
       <use x="55.615234" xlink:href="#LiberationSans-48"/>
       <use x="111.230469" xlink:href="#LiberationSans-48"/>
       <use x="166.845703" xlink:href="#LiberationSans-48"/>
      </g>
     </g>
    </g>
    <g id="ytick_4">
     <g id="line2d_9">
      <g>
       <use style="fill:#262626;stroke:#262626;stroke-width:1.25;" x="90.144375" xlink:href="#mfaeee36eaf" y="15.171562"/>
      </g>
     </g>
     <g id="text_10">
      <!-- 1500 -->
      <g style="fill:#262626;" transform="translate(31.708125 23.143125)scale(0.22 -0.22)">
       <use xlink:href="#LiberationSans-49"/>
       <use x="55.615234" xlink:href="#LiberationSans-53"/>
       <use x="111.230469" xlink:href="#LiberationSans-48"/>
       <use x="166.845703" xlink:href="#LiberationSans-48"/>
      </g>
     </g>
    </g>
    <g id="text_11">
     <!-- Count -->
     <g style="fill:#262626;" transform="translate(23.143125 175.28345)rotate(-90)scale(0.22 -0.22)">
      <defs>
       <path d="M 38.671875 62.203125 
Q 27.25 62.203125 20.890625 54.859375 
Q 14.546875 47.515625 14.546875 34.71875 
Q 14.546875 22.078125 21.15625 14.375 
Q 27.78125 6.6875 39.0625 6.6875 
Q 53.515625 6.6875 60.796875 21 
L 68.40625 17.1875 
Q 64.15625 8.296875 56.46875 3.65625 
Q 48.78125 -0.984375 38.625 -0.984375 
Q 28.21875 -0.984375 20.625 3.34375 
Q 13.03125 7.671875 9.046875 15.703125 
Q 5.078125 23.734375 5.078125 34.71875 
Q 5.078125 51.171875 13.96875 60.5 
Q 22.859375 69.828125 38.578125 69.828125 
Q 49.5625 69.828125 56.9375 65.53125 
Q 64.3125 61.234375 67.78125 52.78125 
L 58.9375 49.859375 
Q 56.546875 55.859375 51.25 59.03125 
Q 45.953125 62.203125 38.671875 62.203125 
z
" id="LiberationSans-67"/>
       <path d="M 15.328125 52.828125 
L 15.328125 19.34375 
Q 15.328125 14.109375 16.359375 11.21875 
Q 17.390625 8.34375 19.625 7.078125 
Q 21.875 5.8125 26.21875 5.8125 
Q 32.5625 5.8125 36.21875 10.15625 
Q 39.890625 14.5 39.890625 22.21875 
L 39.890625 52.828125 
L 48.6875 52.828125 
L 48.6875 11.28125 
Q 48.6875 2.046875 48.96875 0 
L 40.671875 0 
Q 40.625 0.25 40.578125 1.3125 
Q 40.53125 2.390625 40.453125 3.78125 
Q 40.375 5.171875 40.28125 9.03125 
L 40.140625 9.03125 
Q 37.109375 3.5625 33.125 1.28125 
Q 29.15625 -0.984375 23.25 -0.984375 
Q 14.546875 -0.984375 10.515625 3.34375 
Q 6.5 7.671875 6.5 17.625 
L 6.5 52.828125 
z
" id="LiberationSans-117"/>
       <path d="M 27.046875 0.390625 
Q 22.703125 -0.78125 18.171875 -0.78125 
Q 7.625 -0.78125 7.625 11.1875 
L 7.625 46.4375 
L 1.515625 46.4375 
L 1.515625 52.828125 
L 7.953125 52.828125 
L 10.546875 64.65625 
L 16.40625 64.65625 
L 16.40625 52.828125 
L 26.171875 52.828125 
L 26.171875 46.4375 
L 16.40625 46.4375 
L 16.40625 13.09375 
Q 16.40625 9.28125 17.640625 7.734375 
Q 18.890625 6.203125 21.96875 6.203125 
Q 23.734375 6.203125 27.046875 6.890625 
z
" id="LiberationSans-116"/>
      </defs>
      <use xlink:href="#LiberationSans-67"/>
      <use x="72.216797" xlink:href="#LiberationSans-111"/>
      <use x="127.832031" xlink:href="#LiberationSans-117"/>
      <use x="183.447266" xlink:href="#LiberationSans-110"/>
      <use x="239.0625" xlink:href="#LiberationSans-116"/>
     </g>
    </g>
   </g>
   <g id="patch_3">
    <path clip-path="url(#p36ff3671b6)" d="M 106.377102 278.988356 
L 112.870193 278.988356 
L 112.870193 25.548356 
L 106.377102 25.548356 
z
" style="fill:#0066ff;fill-opacity:0.5;stroke:#ffffff;stroke-linejoin:miter;"/>
   </g>
   <g id="patch_4">
    <path clip-path="url(#p36ff3671b6)" d="M 112.870193 278.988356 
L 119.363284 278.988356 
L 119.363284 194.215227 
L 112.870193 194.215227 
z
" style="fill:#0066ff;fill-opacity:0.5;stroke:#ffffff;stroke-linejoin:miter;"/>
   </g>
   <g id="patch_5">
    <path clip-path="url(#p36ff3671b6)" d="M 119.363284 278.988356 
L 125.856375 278.988356 
L 125.856375 229.918433 
L 119.363284 229.918433 
z
" style="fill:#0066ff;fill-opacity:0.5;stroke:#ffffff;stroke-linejoin:miter;"/>
   </g>
   <g id="patch_6">
    <path clip-path="url(#p36ff3671b6)" d="M 125.856376 278.988356 
L 132.349465 278.988356 
L 132.349465 245.74744 
L 125.856376 245.74744 
z
" style="fill:#0066ff;fill-opacity:0.5;stroke:#ffffff;stroke-linejoin:miter;"/>
   </g>
   <g id="patch_7">
    <path clip-path="url(#p36ff3671b6)" d="M 132.349465 278.988356 
L 138.842557 278.988356 
L 138.842557 245.219807 
L 132.349465 245.219807 
z
" style="fill:#0066ff;fill-opacity:0.5;stroke:#ffffff;stroke-linejoin:miter;"/>
   </g>
   <g id="patch_8">
    <path clip-path="url(#p36ff3671b6)" d="M 138.842557 278.988356 
L 145.335647 278.988356 
L 145.335647 244.16454 
L 138.842557 244.16454 
z
" style="fill:#0066ff;fill-opacity:0.5;stroke:#ffffff;stroke-linejoin:miter;"/>
   </g>
   <g id="patch_9">
    <path clip-path="url(#p36ff3671b6)" d="M 145.335644 278.988356 
L 151.828734 278.988356 
L 151.828734 251.55141 
L 145.335644 251.55141 
z
" style="fill:#0066ff;fill-opacity:0.5;stroke:#ffffff;stroke-linejoin:miter;"/>
   </g>
   <g id="patch_10">
    <path clip-path="url(#p36ff3671b6)" d="M 151.828744 278.988356 
L 158.321833 278.988356 
L 158.321833 260.697059 
L 151.828744 260.697059 
z
" style="fill:#0066ff;fill-opacity:0.5;stroke:#ffffff;stroke-linejoin:miter;"/>
   </g>
   <g id="patch_11">
    <path clip-path="url(#p36ff3671b6)" d="M 158.321828 278.988356 
L 164.814923 278.988356 
L 164.814923 261.048814 
L 158.321828 261.048814 
z
" style="fill:#0066ff;fill-opacity:0.5;stroke:#ffffff;stroke-linejoin:miter;"/>
   </g>
   <g id="patch_12">
    <path clip-path="url(#p36ff3671b6)" d="M 164.814923 278.988356 
L 171.308012 278.988356 
L 171.308012 265.445761 
L 164.814923 265.445761 
z
" style="fill:#0066ff;fill-opacity:0.5;stroke:#ffffff;stroke-linejoin:miter;"/>
   </g>
   <g id="patch_13">
    <path clip-path="url(#p36ff3671b6)" d="M 171.308017 278.988356 
L 177.801107 278.988356 
L 177.801107 268.611562 
L 171.308017 268.611562 
z
" style="fill:#0066ff;fill-opacity:0.5;stroke:#ffffff;stroke-linejoin:miter;"/>
   </g>
   <g id="patch_14">
    <path clip-path="url(#p36ff3671b6)" d="M 177.801102 278.988356 
L 184.294191 278.988356 
L 184.294191 272.656753 
L 177.801102 272.656753 
z
" style="fill:#0066ff;fill-opacity:0.5;stroke:#ffffff;stroke-linejoin:miter;"/>
   </g>
   <g id="patch_15">
    <path clip-path="url(#p36ff3671b6)" d="M 184.294196 278.988356 
L 190.787281 278.988356 
L 190.787281 273.008509 
L 184.294196 273.008509 
z
" style="fill:#0066ff;fill-opacity:0.5;stroke:#ffffff;stroke-linejoin:miter;"/>
   </g>
   <g id="patch_16">
    <path clip-path="url(#p36ff3671b6)" d="M 190.787281 278.988356 
L 197.280375 278.988356 
L 197.280375 274.415532 
L 190.787281 274.415532 
z
" style="fill:#0066ff;fill-opacity:0.5;stroke:#ffffff;stroke-linejoin:miter;"/>
   </g>
   <g id="patch_17">
    <path clip-path="url(#p36ff3671b6)" d="M 197.280385 278.988356 
L 203.773479 278.988356 
L 203.773479 275.470799 
L 197.280385 275.470799 
z
" style="fill:#0066ff;fill-opacity:0.5;stroke:#ffffff;stroke-linejoin:miter;"/>
   </g>
   <g id="patch_18">
    <path clip-path="url(#p36ff3671b6)" d="M 203.77347 278.988356 
L 210.266554 278.988356 
L 210.266554 276.526066 
L 203.77347 276.526066 
z
" style="fill:#0066ff;fill-opacity:0.5;stroke:#ffffff;stroke-linejoin:miter;"/>
   </g>
   <g id="patch_19">
    <path clip-path="url(#p36ff3671b6)" d="M 210.266554 278.988356 
L 216.759649 278.988356 
L 216.759649 276.877822 
L 210.266554 276.877822 
z
" style="fill:#0066ff;fill-opacity:0.5;stroke:#ffffff;stroke-linejoin:miter;"/>
   </g>
   <g id="patch_20">
    <path clip-path="url(#p36ff3671b6)" d="M 216.759659 278.988356 
L 223.252753 278.988356 
L 223.252753 277.0537 
L 216.759659 277.0537 
z
" style="fill:#0066ff;fill-opacity:0.5;stroke:#ffffff;stroke-linejoin:miter;"/>
   </g>
   <g id="patch_21">
    <path clip-path="url(#p36ff3671b6)" d="M 223.252743 278.988356 
L 229.745828 278.988356 
L 229.745828 278.108967 
L 223.252743 278.108967 
z
" style="fill:#0066ff;fill-opacity:0.5;stroke:#ffffff;stroke-linejoin:miter;"/>
   </g>
   <g id="patch_22">
    <path clip-path="url(#p36ff3671b6)" d="M 229.745828 278.988356 
L 236.238922 278.988356 
L 236.238922 276.877822 
L 229.745828 276.877822 
z
" style="fill:#0066ff;fill-opacity:0.5;stroke:#ffffff;stroke-linejoin:miter;"/>
   </g>
   <g id="patch_23">
    <path clip-path="url(#p36ff3671b6)" d="M 236.238922 278.988356 
L 242.732007 278.988356 
L 242.732007 277.581333 
L 236.238922 277.581333 
z
" style="fill:#0066ff;fill-opacity:0.5;stroke:#ffffff;stroke-linejoin:miter;"/>
   </g>
   <g id="patch_24">
    <path clip-path="url(#p36ff3671b6)" d="M 242.732017 278.988356 
L 249.225111 278.988356 
L 249.225111 278.108967 
L 242.732017 278.108967 
z
" style="fill:#0066ff;fill-opacity:0.5;stroke:#ffffff;stroke-linejoin:miter;"/>
   </g>
   <g id="patch_25">
    <path clip-path="url(#p36ff3671b6)" d="M 249.225101 278.988356 
L 255.718196 278.988356 
L 255.718196 278.460723 
L 249.225101 278.460723 
z
" style="fill:#0066ff;fill-opacity:0.5;stroke:#ffffff;stroke-linejoin:miter;"/>
   </g>
   <g id="patch_26">
    <path clip-path="url(#p36ff3671b6)" d="M 255.718196 278.988356 
L 262.211281 278.988356 
L 262.211281 278.812479 
L 255.718196 278.812479 
z
" style="fill:#0066ff;fill-opacity:0.5;stroke:#ffffff;stroke-linejoin:miter;"/>
   </g>
   <g id="patch_27">
    <path clip-path="url(#p36ff3671b6)" d="M 262.21129 278.988356 
L 268.704375 278.988356 
L 268.704375 278.812479 
L 262.21129 278.812479 
z
" style="fill:#0066ff;fill-opacity:0.5;stroke:#ffffff;stroke-linejoin:miter;"/>
   </g>
   <g id="patch_28">
    <path clip-path="url(#p36ff3671b6)" d="M 268.704375 278.988356 
L 275.19746 278.988356 
L 275.19746 278.636601 
L 268.704375 278.636601 
z
" style="fill:#0066ff;fill-opacity:0.5;stroke:#ffffff;stroke-linejoin:miter;"/>
   </g>
   <g id="patch_29">
    <path clip-path="url(#p36ff3671b6)" d="M 275.19746 278.988356 
L 281.690564 278.988356 
L 281.690564 278.988356 
L 275.19746 278.988356 
z
" style="fill:#0066ff;fill-opacity:0.5;stroke:#ffffff;stroke-linejoin:miter;"/>
   </g>
   <g id="patch_30">
    <path clip-path="url(#p36ff3671b6)" d="M 281.690564 278.988356 
L 288.183649 278.988356 
L 288.183649 278.284845 
L 281.690564 278.284845 
z
" style="fill:#0066ff;fill-opacity:0.5;stroke:#ffffff;stroke-linejoin:miter;"/>
   </g>
   <g id="patch_31">
    <path clip-path="url(#p36ff3671b6)" d="M 288.183649 278.988356 
L 294.676733 278.988356 
L 294.676733 278.636601 
L 288.183649 278.636601 
z
" style="fill:#0066ff;fill-opacity:0.5;stroke:#ffffff;stroke-linejoin:miter;"/>
   </g>
   <g id="patch_32">
    <path clip-path="url(#p36ff3671b6)" d="M 294.676753 278.988356 
L 301.169857 278.988356 
L 301.169857 278.636601 
L 294.676753 278.636601 
z
" style="fill:#0066ff;fill-opacity:0.5;stroke:#ffffff;stroke-linejoin:miter;"/>
   </g>
   <g id="patch_33">
    <path clip-path="url(#p36ff3671b6)" d="M 301.169837 278.988356 
L 307.662922 278.988356 
L 307.662922 278.812479 
L 301.169837 278.812479 
z
" style="fill:#0066ff;fill-opacity:0.5;stroke:#ffffff;stroke-linejoin:miter;"/>
   </g>
   <g id="patch_34">
    <path clip-path="url(#p36ff3671b6)" d="M 307.662922 278.988356 
L 314.156007 278.988356 
L 314.156007 278.988356 
L 307.662922 278.988356 
z
" style="fill:#0066ff;fill-opacity:0.5;stroke:#ffffff;stroke-linejoin:miter;"/>
   </g>
   <g id="patch_35">
    <path clip-path="url(#p36ff3671b6)" d="M 314.156007 278.988356 
L 320.649111 278.988356 
L 320.649111 278.988356 
L 314.156007 278.988356 
z
" style="fill:#0066ff;fill-opacity:0.5;stroke:#ffffff;stroke-linejoin:miter;"/>
   </g>
   <g id="patch_36">
    <path clip-path="url(#p36ff3671b6)" d="M 320.649111 278.988356 
L 327.142196 278.988356 
L 327.142196 278.988356 
L 320.649111 278.988356 
z
" style="fill:#0066ff;fill-opacity:0.5;stroke:#ffffff;stroke-linejoin:miter;"/>
   </g>
   <g id="patch_37">
    <path clip-path="url(#p36ff3671b6)" d="M 327.142196 278.988356 
L 333.63528 278.988356 
L 333.63528 278.812479 
L 327.142196 278.812479 
z
" style="fill:#0066ff;fill-opacity:0.5;stroke:#ffffff;stroke-linejoin:miter;"/>
   </g>
   <g id="patch_38">
    <path clip-path="url(#p36ff3671b6)" d="M 333.6353 278.988356 
L 340.128404 278.988356 
L 340.128404 278.988356 
L 333.6353 278.988356 
z
" style="fill:#0066ff;fill-opacity:0.5;stroke:#ffffff;stroke-linejoin:miter;"/>
   </g>
   <g id="patch_39">
    <path clip-path="url(#p36ff3671b6)" d="M 340.128384 278.988356 
L 346.621469 278.988356 
L 346.621469 278.988356 
L 340.128384 278.988356 
z
" style="fill:#0066ff;fill-opacity:0.5;stroke:#ffffff;stroke-linejoin:miter;"/>
   </g>
   <g id="patch_40">
    <path clip-path="url(#p36ff3671b6)" d="M 346.621469 278.988356 
L 353.114554 278.988356 
L 353.114554 278.988356 
L 346.621469 278.988356 
z
" style="fill:#0066ff;fill-opacity:0.5;stroke:#ffffff;stroke-linejoin:miter;"/>
   </g>
   <g id="patch_41">
    <path clip-path="url(#p36ff3671b6)" d="M 353.114554 278.988356 
L 359.607638 278.988356 
L 359.607638 278.988356 
L 353.114554 278.988356 
z
" style="fill:#0066ff;fill-opacity:0.5;stroke:#ffffff;stroke-linejoin:miter;"/>
   </g>
   <g id="patch_42">
    <path clip-path="url(#p36ff3671b6)" d="M 359.607638 278.988356 
L 366.100743 278.988356 
L 366.100743 278.988356 
L 359.607638 278.988356 
z
" style="fill:#0066ff;fill-opacity:0.5;stroke:#ffffff;stroke-linejoin:miter;"/>
   </g>
   <g id="patch_43">
    <path clip-path="url(#p36ff3671b6)" d="M 366.100743 278.988356 
L 372.593827 278.988356 
L 372.593827 278.988356 
L 366.100743 278.988356 
z
" style="fill:#0066ff;fill-opacity:0.5;stroke:#ffffff;stroke-linejoin:miter;"/>
   </g>
   <g id="patch_44">
    <path clip-path="url(#p36ff3671b6)" d="M 372.593827 278.988356 
L 379.086912 278.988356 
L 379.086912 278.988356 
L 372.593827 278.988356 
z
" style="fill:#0066ff;fill-opacity:0.5;stroke:#ffffff;stroke-linejoin:miter;"/>
   </g>
   <g id="patch_45">
    <path clip-path="url(#p36ff3671b6)" d="M 379.086931 278.988356 
L 385.580035 278.988356 
L 385.580035 278.988356 
L 379.086931 278.988356 
z
" style="fill:#0066ff;fill-opacity:0.5;stroke:#ffffff;stroke-linejoin:miter;"/>
   </g>
   <g id="patch_46">
    <path clip-path="url(#p36ff3671b6)" d="M 385.580016 278.988356 
L 392.073101 278.988356 
L 392.073101 278.988356 
L 385.580016 278.988356 
z
" style="fill:#0066ff;fill-opacity:0.5;stroke:#ffffff;stroke-linejoin:miter;"/>
   </g>
   <g id="patch_47">
    <path clip-path="url(#p36ff3671b6)" d="M 392.073101 278.988356 
L 398.566185 278.988356 
L 398.566185 278.988356 
L 392.073101 278.988356 
z
" style="fill:#0066ff;fill-opacity:0.5;stroke:#ffffff;stroke-linejoin:miter;"/>
   </g>
   <g id="patch_48">
    <path clip-path="url(#p36ff3671b6)" d="M 398.566185 278.988356 
L 405.05929 278.988356 
L 405.05929 278.988356 
L 398.566185 278.988356 
z
" style="fill:#0066ff;fill-opacity:0.5;stroke:#ffffff;stroke-linejoin:miter;"/>
   </g>
   <g id="patch_49">
    <path clip-path="url(#p36ff3671b6)" d="M 405.05929 278.988356 
L 411.552374 278.988356 
L 411.552374 278.988356 
L 405.05929 278.988356 
z
" style="fill:#0066ff;fill-opacity:0.5;stroke:#ffffff;stroke-linejoin:miter;"/>
   </g>
   <g id="patch_50">
    <path clip-path="url(#p36ff3671b6)" d="M 411.552374 278.988356 
L 418.045459 278.988356 
L 418.045459 278.988356 
L 411.552374 278.988356 
z
" style="fill:#0066ff;fill-opacity:0.5;stroke:#ffffff;stroke-linejoin:miter;"/>
   </g>
   <g id="patch_51">
    <path clip-path="url(#p36ff3671b6)" d="M 418.045478 278.988356 
L 424.538582 278.988356 
L 424.538582 278.988356 
L 418.045478 278.988356 
z
" style="fill:#0066ff;fill-opacity:0.5;stroke:#ffffff;stroke-linejoin:miter;"/>
   </g>
   <g id="patch_52">
    <path clip-path="url(#p36ff3671b6)" d="M 424.538563 278.988356 
L 431.031648 278.988356 
L 431.031648 278.636601 
L 424.538563 278.636601 
z
" style="fill:#0066ff;fill-opacity:0.5;stroke:#ffffff;stroke-linejoin:miter;"/>
   </g>
   <g id="patch_53">
    <path clip-path="url(#p36ff3671b6)" d="M 106.377102 278.988356 
L 112.870193 278.988356 
L 112.870193 259.114158 
L 106.377102 259.114158 
z
" style="fill:#ff0000;fill-opacity:0.5;stroke:#ffffff;stroke-linejoin:miter;"/>
   </g>
   <g id="patch_54">
    <path clip-path="url(#p36ff3671b6)" d="M 112.870193 278.988356 
L 119.363284 278.988356 
L 119.363284 246.62683 
L 112.870193 246.62683 
z
" style="fill:#ff0000;fill-opacity:0.5;stroke:#ffffff;stroke-linejoin:miter;"/>
   </g>
   <g id="patch_55">
    <path clip-path="url(#p36ff3671b6)" d="M 119.363284 278.988356 
L 125.856375 278.988356 
L 125.856375 246.099196 
L 119.363284 246.099196 
z
" style="fill:#ff0000;fill-opacity:0.5;stroke:#ffffff;stroke-linejoin:miter;"/>
   </g>
   <g id="patch_56">
    <path clip-path="url(#p36ff3671b6)" d="M 125.856376 278.988356 
L 132.349465 278.988356 
L 132.349465 244.340417 
L 125.856376 244.340417 
z
" style="fill:#ff0000;fill-opacity:0.5;stroke:#ffffff;stroke-linejoin:miter;"/>
   </g>
   <g id="patch_57">
    <path clip-path="url(#p36ff3671b6)" d="M 132.349465 278.988356 
L 138.842557 278.988356 
L 138.842557 233.611868 
L 132.349465 233.611868 
z
" style="fill:#ff0000;fill-opacity:0.5;stroke:#ffffff;stroke-linejoin:miter;"/>
   </g>
   <g id="patch_58">
    <path clip-path="url(#p36ff3671b6)" d="M 138.842557 278.988356 
L 145.335647 278.988356 
L 145.335647 226.400875 
L 138.842557 226.400875 
z
" style="fill:#ff0000;fill-opacity:0.5;stroke:#ffffff;stroke-linejoin:miter;"/>
   </g>
   <g id="patch_59">
    <path clip-path="url(#p36ff3671b6)" d="M 145.335644 278.988356 
L 151.828734 278.988356 
L 151.828734 239.239959 
L 145.335644 239.239959 
z
" style="fill:#ff0000;fill-opacity:0.5;stroke:#ffffff;stroke-linejoin:miter;"/>
   </g>
   <g id="patch_60">
    <path clip-path="url(#p36ff3671b6)" d="M 151.828744 278.988356 
L 158.321833 278.988356 
L 158.321833 246.450952 
L 151.828744 246.450952 
z
" style="fill:#ff0000;fill-opacity:0.5;stroke:#ffffff;stroke-linejoin:miter;"/>
   </g>
   <g id="patch_61">
    <path clip-path="url(#p36ff3671b6)" d="M 158.321828 278.988356 
L 164.814923 278.988356 
L 164.814923 253.134311 
L 158.321828 253.134311 
z
" style="fill:#ff0000;fill-opacity:0.5;stroke:#ffffff;stroke-linejoin:miter;"/>
   </g>
   <g id="patch_62">
    <path clip-path="url(#p36ff3671b6)" d="M 164.814923 278.988356 
L 171.308012 278.988356 
L 171.308012 262.983471 
L 164.814923 262.983471 
z
" style="fill:#ff0000;fill-opacity:0.5;stroke:#ffffff;stroke-linejoin:miter;"/>
   </g>
   <g id="patch_63">
    <path clip-path="url(#p36ff3671b6)" d="M 171.308017 278.988356 
L 177.801107 278.988356 
L 177.801107 268.435685 
L 171.308017 268.435685 
z
" style="fill:#ff0000;fill-opacity:0.5;stroke:#ffffff;stroke-linejoin:miter;"/>
   </g>
   <g id="patch_64">
    <path clip-path="url(#p36ff3671b6)" d="M 177.801102 278.988356 
L 184.294191 278.988356 
L 184.294191 270.897975 
L 177.801102 270.897975 
z
" style="fill:#ff0000;fill-opacity:0.5;stroke:#ffffff;stroke-linejoin:miter;"/>
   </g>
   <g id="patch_65">
    <path clip-path="url(#p36ff3671b6)" d="M 184.294196 278.988356 
L 190.787281 278.988356 
L 190.787281 269.66683 
L 184.294196 269.66683 
z
" style="fill:#ff0000;fill-opacity:0.5;stroke:#ffffff;stroke-linejoin:miter;"/>
   </g>
   <g id="patch_66">
    <path clip-path="url(#p36ff3671b6)" d="M 190.787281 278.988356 
L 197.280375 278.988356 
L 197.280375 272.12912 
L 190.787281 272.12912 
z
" style="fill:#ff0000;fill-opacity:0.5;stroke:#ffffff;stroke-linejoin:miter;"/>
   </g>
   <g id="patch_67">
    <path clip-path="url(#p36ff3671b6)" d="M 197.280385 278.988356 
L 203.773479 278.988356 
L 203.773479 275.646677 
L 197.280385 275.646677 
z
" style="fill:#ff0000;fill-opacity:0.5;stroke:#ffffff;stroke-linejoin:miter;"/>
   </g>
   <g id="patch_68">
    <path clip-path="url(#p36ff3671b6)" d="M 203.77347 278.988356 
L 210.266554 278.988356 
L 210.266554 273.536143 
L 203.77347 273.536143 
z
" style="fill:#ff0000;fill-opacity:0.5;stroke:#ffffff;stroke-linejoin:miter;"/>
   </g>
   <g id="patch_69">
    <path clip-path="url(#p36ff3671b6)" d="M 210.266554 278.988356 
L 216.759649 278.988356 
L 216.759649 275.119043 
L 210.266554 275.119043 
z
" style="fill:#ff0000;fill-opacity:0.5;stroke:#ffffff;stroke-linejoin:miter;"/>
   </g>
   <g id="patch_70">
    <path clip-path="url(#p36ff3671b6)" d="M 216.759659 278.988356 
L 223.252753 278.988356 
L 223.252753 275.822555 
L 216.759659 275.822555 
z
" style="fill:#ff0000;fill-opacity:0.5;stroke:#ffffff;stroke-linejoin:miter;"/>
   </g>
   <g id="patch_71">
    <path clip-path="url(#p36ff3671b6)" d="M 223.252743 278.988356 
L 229.745828 278.988356 
L 229.745828 275.822555 
L 223.252743 275.822555 
z
" style="fill:#ff0000;fill-opacity:0.5;stroke:#ffffff;stroke-linejoin:miter;"/>
   </g>
   <g id="patch_72">
    <path clip-path="url(#p36ff3671b6)" d="M 229.745828 278.988356 
L 236.238922 278.988356 
L 236.238922 276.350188 
L 229.745828 276.350188 
z
" style="fill:#ff0000;fill-opacity:0.5;stroke:#ffffff;stroke-linejoin:miter;"/>
   </g>
   <g id="patch_73">
    <path clip-path="url(#p36ff3671b6)" d="M 236.238922 278.988356 
L 242.732007 278.988356 
L 242.732007 276.174311 
L 236.238922 276.174311 
z
" style="fill:#ff0000;fill-opacity:0.5;stroke:#ffffff;stroke-linejoin:miter;"/>
   </g>
   <g id="patch_74">
    <path clip-path="url(#p36ff3671b6)" d="M 242.732017 278.988356 
L 249.225111 278.988356 
L 249.225111 277.581333 
L 242.732017 277.581333 
z
" style="fill:#ff0000;fill-opacity:0.5;stroke:#ffffff;stroke-linejoin:miter;"/>
   </g>
   <g id="patch_75">
    <path clip-path="url(#p36ff3671b6)" d="M 249.225101 278.988356 
L 255.718196 278.988356 
L 255.718196 277.757211 
L 249.225101 277.757211 
z
" style="fill:#ff0000;fill-opacity:0.5;stroke:#ffffff;stroke-linejoin:miter;"/>
   </g>
   <g id="patch_76">
    <path clip-path="url(#p36ff3671b6)" d="M 255.718196 278.988356 
L 262.211281 278.988356 
L 262.211281 278.108967 
L 255.718196 278.108967 
z
" style="fill:#ff0000;fill-opacity:0.5;stroke:#ffffff;stroke-linejoin:miter;"/>
   </g>
   <g id="patch_77">
    <path clip-path="url(#p36ff3671b6)" d="M 262.21129 278.988356 
L 268.704375 278.988356 
L 268.704375 278.460723 
L 262.21129 278.460723 
z
" style="fill:#ff0000;fill-opacity:0.5;stroke:#ffffff;stroke-linejoin:miter;"/>
   </g>
   <g id="patch_78">
    <path clip-path="url(#p36ff3671b6)" d="M 268.704375 278.988356 
L 275.19746 278.988356 
L 275.19746 278.284845 
L 268.704375 278.284845 
z
" style="fill:#ff0000;fill-opacity:0.5;stroke:#ffffff;stroke-linejoin:miter;"/>
   </g>
   <g id="patch_79">
    <path clip-path="url(#p36ff3671b6)" d="M 275.19746 278.988356 
L 281.690564 278.988356 
L 281.690564 278.636601 
L 275.19746 278.636601 
z
" style="fill:#ff0000;fill-opacity:0.5;stroke:#ffffff;stroke-linejoin:miter;"/>
   </g>
   <g id="patch_80">
    <path clip-path="url(#p36ff3671b6)" d="M 281.690564 278.988356 
L 288.183649 278.988356 
L 288.183649 278.460723 
L 281.690564 278.460723 
z
" style="fill:#ff0000;fill-opacity:0.5;stroke:#ffffff;stroke-linejoin:miter;"/>
   </g>
   <g id="patch_81">
    <path clip-path="url(#p36ff3671b6)" d="M 288.183649 278.988356 
L 294.676733 278.988356 
L 294.676733 278.460723 
L 288.183649 278.460723 
z
" style="fill:#ff0000;fill-opacity:0.5;stroke:#ffffff;stroke-linejoin:miter;"/>
   </g>
   <g id="patch_82">
    <path clip-path="url(#p36ff3671b6)" d="M 294.676753 278.988356 
L 301.169857 278.988356 
L 301.169857 278.988356 
L 294.676753 278.988356 
z
" style="fill:#ff0000;fill-opacity:0.5;stroke:#ffffff;stroke-linejoin:miter;"/>
   </g>
   <g id="patch_83">
    <path clip-path="url(#p36ff3671b6)" d="M 301.169837 278.988356 
L 307.662922 278.988356 
L 307.662922 278.460723 
L 301.169837 278.460723 
z
" style="fill:#ff0000;fill-opacity:0.5;stroke:#ffffff;stroke-linejoin:miter;"/>
   </g>
   <g id="patch_84">
    <path clip-path="url(#p36ff3671b6)" d="M 307.662922 278.988356 
L 314.156007 278.988356 
L 314.156007 278.812479 
L 307.662922 278.812479 
z
" style="fill:#ff0000;fill-opacity:0.5;stroke:#ffffff;stroke-linejoin:miter;"/>
   </g>
   <g id="patch_85">
    <path clip-path="url(#p36ff3671b6)" d="M 314.156007 278.988356 
L 320.649111 278.988356 
L 320.649111 278.988356 
L 314.156007 278.988356 
z
" style="fill:#ff0000;fill-opacity:0.5;stroke:#ffffff;stroke-linejoin:miter;"/>
   </g>
   <g id="patch_86">
    <path clip-path="url(#p36ff3671b6)" d="M 320.649111 278.988356 
L 327.142196 278.988356 
L 327.142196 278.988356 
L 320.649111 278.988356 
z
" style="fill:#ff0000;fill-opacity:0.5;stroke:#ffffff;stroke-linejoin:miter;"/>
   </g>
   <g id="patch_87">
    <path clip-path="url(#p36ff3671b6)" d="M 327.142196 278.988356 
L 333.63528 278.988356 
L 333.63528 278.812479 
L 327.142196 278.812479 
z
" style="fill:#ff0000;fill-opacity:0.5;stroke:#ffffff;stroke-linejoin:miter;"/>
   </g>
   <g id="patch_88">
    <path clip-path="url(#p36ff3671b6)" d="M 333.6353 278.988356 
L 340.128404 278.988356 
L 340.128404 278.988356 
L 333.6353 278.988356 
z
" style="fill:#ff0000;fill-opacity:0.5;stroke:#ffffff;stroke-linejoin:miter;"/>
   </g>
   <g id="patch_89">
    <path clip-path="url(#p36ff3671b6)" d="M 340.128384 278.988356 
L 346.621469 278.988356 
L 346.621469 278.988356 
L 340.128384 278.988356 
z
" style="fill:#ff0000;fill-opacity:0.5;stroke:#ffffff;stroke-linejoin:miter;"/>
   </g>
   <g id="patch_90">
    <path clip-path="url(#p36ff3671b6)" d="M 346.621469 278.988356 
L 353.114554 278.988356 
L 353.114554 278.988356 
L 346.621469 278.988356 
z
" style="fill:#ff0000;fill-opacity:0.5;stroke:#ffffff;stroke-linejoin:miter;"/>
   </g>
   <g id="patch_91">
    <path clip-path="url(#p36ff3671b6)" d="M 353.114554 278.988356 
L 359.607638 278.988356 
L 359.607638 278.988356 
L 353.114554 278.988356 
z
" style="fill:#ff0000;fill-opacity:0.5;stroke:#ffffff;stroke-linejoin:miter;"/>
   </g>
   <g id="patch_92">
    <path clip-path="url(#p36ff3671b6)" d="M 359.607638 278.988356 
L 366.100743 278.988356 
L 366.100743 278.988356 
L 359.607638 278.988356 
z
" style="fill:#ff0000;fill-opacity:0.5;stroke:#ffffff;stroke-linejoin:miter;"/>
   </g>
   <g id="patch_93">
    <path clip-path="url(#p36ff3671b6)" d="M 366.100743 278.988356 
L 372.593827 278.988356 
L 372.593827 278.988356 
L 366.100743 278.988356 
z
" style="fill:#ff0000;fill-opacity:0.5;stroke:#ffffff;stroke-linejoin:miter;"/>
   </g>
   <g id="patch_94">
    <path clip-path="url(#p36ff3671b6)" d="M 372.593827 278.988356 
L 379.086912 278.988356 
L 379.086912 278.988356 
L 372.593827 278.988356 
z
" style="fill:#ff0000;fill-opacity:0.5;stroke:#ffffff;stroke-linejoin:miter;"/>
   </g>
   <g id="patch_95">
    <path clip-path="url(#p36ff3671b6)" d="M 379.086931 278.988356 
L 385.580035 278.988356 
L 385.580035 278.988356 
L 379.086931 278.988356 
z
" style="fill:#ff0000;fill-opacity:0.5;stroke:#ffffff;stroke-linejoin:miter;"/>
   </g>
   <g id="patch_96">
    <path clip-path="url(#p36ff3671b6)" d="M 385.580016 278.988356 
L 392.073101 278.988356 
L 392.073101 278.988356 
L 385.580016 278.988356 
z
" style="fill:#ff0000;fill-opacity:0.5;stroke:#ffffff;stroke-linejoin:miter;"/>
   </g>
   <g id="patch_97">
    <path clip-path="url(#p36ff3671b6)" d="M 392.073101 278.988356 
L 398.566185 278.988356 
L 398.566185 278.988356 
L 392.073101 278.988356 
z
" style="fill:#ff0000;fill-opacity:0.5;stroke:#ffffff;stroke-linejoin:miter;"/>
   </g>
   <g id="patch_98">
    <path clip-path="url(#p36ff3671b6)" d="M 398.566185 278.988356 
L 405.05929 278.988356 
L 405.05929 278.988356 
L 398.566185 278.988356 
z
" style="fill:#ff0000;fill-opacity:0.5;stroke:#ffffff;stroke-linejoin:miter;"/>
   </g>
   <g id="patch_99">
    <path clip-path="url(#p36ff3671b6)" d="M 405.05929 278.988356 
L 411.552374 278.988356 
L 411.552374 278.988356 
L 405.05929 278.988356 
z
" style="fill:#ff0000;fill-opacity:0.5;stroke:#ffffff;stroke-linejoin:miter;"/>
   </g>
   <g id="patch_100">
    <path clip-path="url(#p36ff3671b6)" d="M 411.552374 278.988356 
L 418.045459 278.988356 
L 418.045459 278.988356 
L 411.552374 278.988356 
z
" style="fill:#ff0000;fill-opacity:0.5;stroke:#ffffff;stroke-linejoin:miter;"/>
   </g>
   <g id="patch_101">
    <path clip-path="url(#p36ff3671b6)" d="M 418.045478 278.988356 
L 424.538582 278.988356 
L 424.538582 278.988356 
L 418.045478 278.988356 
z
" style="fill:#ff0000;fill-opacity:0.5;stroke:#ffffff;stroke-linejoin:miter;"/>
   </g>
   <g id="patch_102">
    <path clip-path="url(#p36ff3671b6)" d="M 424.538563 278.988356 
L 431.031648 278.988356 
L 431.031648 278.988356 
L 424.538563 278.988356 
z
" style="fill:#ff0000;fill-opacity:0.5;stroke:#ffffff;stroke-linejoin:miter;"/>
   </g>
   <g id="patch_103">
    <path d="M 90.144375 278.988356 
L 90.144375 12.876356 
" style="fill:none;stroke:#262626;stroke-linecap:square;stroke-linejoin:miter;stroke-width:1.25;"/>
   </g>
   <g id="patch_104">
    <path d="M 447.264375 278.988356 
L 447.264375 12.876356 
" style="fill:none;stroke:#262626;stroke-linecap:square;stroke-linejoin:miter;stroke-width:1.25;"/>
   </g>
   <g id="patch_105">
    <path d="M 90.144375 278.988356 
L 447.264375 278.988356 
" style="fill:none;stroke:#262626;stroke-linecap:square;stroke-linejoin:miter;stroke-width:1.25;"/>
   </g>
   <g id="patch_106">
    <path d="M 90.144375 12.876356 
L 447.264375 12.876356 
" style="fill:none;stroke:#262626;stroke-linecap:square;stroke-linejoin:miter;stroke-width:1.25;"/>
   </g>
   <g id="legend_1">
    <g id="patch_107">
     <path d="M 315.602109 39.6837 
L 348.602109 39.6837 
L 348.602109 28.1337 
L 315.602109 28.1337 
z
" style="fill:#0066ff;fill-opacity:0.5;stroke:#ffffff;stroke-linejoin:miter;"/>
    </g>
    <g id="text_12">
     <!-- Normal -->
     <g style="fill:#262626;" transform="translate(361.802109 39.6837)scale(0.165 -0.165)">
      <defs>
       <path d="M 52.828125 0 
L 16.015625 58.59375 
L 16.265625 53.859375 
L 16.5 45.703125 
L 16.5 0 
L 8.203125 0 
L 8.203125 68.796875 
L 19.046875 68.796875 
L 56.25 9.8125 
Q 55.671875 19.390625 55.671875 23.6875 
L 55.671875 68.796875 
L 64.0625 68.796875 
L 64.0625 0 
z
" id="LiberationSans-78"/>
      </defs>
      <use xlink:href="#LiberationSans-78"/>
      <use x="72.216797" xlink:href="#LiberationSans-111"/>
      <use x="127.832031" xlink:href="#LiberationSans-114"/>
      <use x="161.132812" xlink:href="#LiberationSans-109"/>
      <use x="244.433594" xlink:href="#LiberationSans-97"/>
      <use x="300.048828" xlink:href="#LiberationSans-108"/>
     </g>
    </g>
    <g id="patch_108">
     <path d="M 315.602109 63.314794 
L 348.602109 63.314794 
L 348.602109 51.764794 
L 315.602109 51.764794 
z
" style="fill:#ff0000;fill-opacity:0.5;stroke:#ffffff;stroke-linejoin:miter;"/>
    </g>
    <g id="text_13">
     <!-- Abnormal -->
     <g style="fill:#262626;" transform="translate(361.802109 63.314794)scale(0.165 -0.165)">
      <defs>
       <path d="M 51.421875 26.65625 
Q 51.421875 -0.984375 31.984375 -0.984375 
Q 25.984375 -0.984375 22 1.1875 
Q 18.015625 3.375 15.53125 8.203125 
L 15.4375 8.203125 
Q 15.4375 6.6875 15.234375 3.578125 
Q 15.046875 0.484375 14.9375 0 
L 6.453125 0 
Q 6.734375 2.640625 6.734375 10.890625 
L 6.734375 72.46875 
L 15.53125 72.46875 
L 15.53125 51.8125 
Q 15.53125 48.640625 15.328125 44.34375 
L 15.53125 44.34375 
Q 17.96875 49.421875 22 51.609375 
Q 26.03125 53.8125 31.984375 53.8125 
Q 42 53.8125 46.703125 47.0625 
Q 51.421875 40.328125 51.421875 26.65625 
z
M 42.1875 26.375 
Q 42.1875 37.453125 39.25 42.234375 
Q 36.328125 47.015625 29.734375 47.015625 
Q 22.3125 47.015625 18.921875 41.9375 
Q 15.53125 36.859375 15.53125 25.828125 
Q 15.53125 15.4375 18.84375 10.46875 
Q 22.171875 5.515625 29.640625 5.515625 
Q 36.28125 5.515625 39.234375 10.421875 
Q 42.1875 15.328125 42.1875 26.375 
z
" id="LiberationSans-98"/>
      </defs>
      <use xlink:href="#LiberationSans-65"/>
      <use x="66.699219" xlink:href="#LiberationSans-98"/>
      <use x="122.314453" xlink:href="#LiberationSans-110"/>
      <use x="177.929688" xlink:href="#LiberationSans-111"/>
      <use x="233.544922" xlink:href="#LiberationSans-114"/>
      <use x="266.845703" xlink:href="#LiberationSans-109"/>
      <use x="350.146484" xlink:href="#LiberationSans-97"/>
      <use x="405.761719" xlink:href="#LiberationSans-108"/>
     </g>
    </g>
   </g>
  </g>
 </g>
 <defs>
  <clipPath id="p36ff3671b6">
   <rect height="266.112" width="357.12" x="90.144375" y="12.876356"/>
  </clipPath>
 </defs>
</svg>
