<?xml version="1.0" encoding="utf-8" standalone="no"?>
<!DOCTYPE svg PUBLIC "-//W3C//DTD SVG 1.1//EN"
  "http://www.w3.org/Graphics/SVG/1.1/DTD/svg11.dtd">
<!-- Created with matplotlib (https://matplotlib.org/) -->
<svg height="332.52825pt" version="1.1" viewBox="0 0 451.964375 332.52825" width="451.964375pt" xmlns="http://www.w3.org/2000/svg" xmlns:xlink="http://www.w3.org/1999/xlink">
 <metadata>
  <rdf:RDF xmlns:cc="http://creativecommons.org/ns#" xmlns:dc="http://purl.org/dc/elements/1.1/" xmlns:rdf="http://www.w3.org/1999/02/22-rdf-syntax-ns#">
   <cc:Work>
    <dc:type rdf:resource="http://purl.org/dc/dcmitype/StillImage"/>
    <dc:date>2024-02-28T17:17:34.179420</dc:date>
    <dc:format>image/svg+xml</dc:format>
    <dc:creator>
     <cc:Agent>
      <dc:title>Matplotlib v3.3.4, https://matplotlib.org/</dc:title>
     </cc:Agent>
    </dc:creator>
   </cc:Work>
  </rdf:RDF>
 </metadata>
 <defs>
  <style type="text/css">*{stroke-linecap:butt;stroke-linejoin:round;}</style>
 </defs>
 <g id="figure_1">
  <g id="patch_1">
   <path d="M 0 332.52825 
L 451.964375 332.52825 
L 451.964375 -0 
L 0 -0 
z
" style="fill:#ffffff;"/>
  </g>
  <g id="axes_1">
   <g id="patch_2">
    <path d="M 87.644375 273.312 
L 444.764375 273.312 
L 444.764375 7.2 
L 87.644375 7.2 
z
" style="fill:#ffffff;"/>
   </g>
   <g id="patch_3">
    <path clip-path="url(#p3b0e37df6c)" d="M 103.877102 273.312 
L 110.370193 273.312 
L 110.370193 19.872 
L 103.877102 19.872 
z
" style="fill:#0066ff;fill-opacity:0.5;"/>
   </g>
   <g id="patch_4">
    <path clip-path="url(#p3b0e37df6c)" d="M 110.370193 273.312 
L 116.863284 273.312 
L 116.863284 262.187725 
L 110.370193 262.187725 
z
" style="fill:#0066ff;fill-opacity:0.5;"/>
   </g>
   <g id="patch_5">
    <path clip-path="url(#p3b0e37df6c)" d="M 116.863284 273.312 
L 123.356375 273.312 
L 123.356375 264.48513 
L 116.863284 264.48513 
z
" style="fill:#0066ff;fill-opacity:0.5;"/>
   </g>
   <g id="patch_6">
    <path clip-path="url(#p3b0e37df6c)" d="M 123.356374 273.312 
L 129.849465 273.312 
L 129.849465 266.419786 
L 123.356374 266.419786 
z
" style="fill:#0066ff;fill-opacity:0.5;"/>
   </g>
   <g id="patch_7">
    <path clip-path="url(#p3b0e37df6c)" d="M 129.849465 273.312 
L 136.342556 273.312 
L 136.342556 267.508031 
L 129.849465 267.508031 
z
" style="fill:#0066ff;fill-opacity:0.5;"/>
   </g>
   <g id="patch_8">
    <path clip-path="url(#p3b0e37df6c)" d="M 136.342554 273.312 
L 142.835644 273.312 
L 142.835644 268.838107 
L 136.342554 268.838107 
z
" style="fill:#0066ff;fill-opacity:0.5;"/>
   </g>
   <g id="patch_9">
    <path clip-path="url(#p3b0e37df6c)" d="M 142.835647 273.312 
L 149.32874 273.312 
L 149.32874 270.168183 
L 142.835647 270.168183 
z
" style="fill:#0066ff;fill-opacity:0.5;"/>
   </g>
   <g id="patch_10">
    <path clip-path="url(#p3b0e37df6c)" d="M 149.32874 273.312 
L 155.821828 273.312 
L 155.821828 270.772763 
L 149.32874 270.772763 
z
" style="fill:#0066ff;fill-opacity:0.5;"/>
   </g>
   <g id="patch_11">
    <path clip-path="url(#p3b0e37df6c)" d="M 155.821828 273.312 
L 162.314921 273.312 
L 162.314921 270.530931 
L 155.821828 270.530931 
z
" style="fill:#0066ff;fill-opacity:0.5;"/>
   </g>
   <g id="patch_12">
    <path clip-path="url(#p3b0e37df6c)" d="M 162.314926 273.312 
L 168.808014 273.312 
L 168.808014 269.805435 
L 162.314926 269.805435 
z
" style="fill:#0066ff;fill-opacity:0.5;"/>
   </g>
   <g id="patch_13">
    <path clip-path="url(#p3b0e37df6c)" d="M 168.80801 273.312 
L 175.301103 273.312 
L 175.301103 270.530931 
L 168.80801 270.530931 
z
" style="fill:#0066ff;fill-opacity:0.5;"/>
   </g>
   <g id="patch_14">
    <path clip-path="url(#p3b0e37df6c)" d="M 175.301103 273.312 
L 181.794191 273.312 
L 181.794191 270.530931 
L 175.301103 270.530931 
z
" style="fill:#0066ff;fill-opacity:0.5;"/>
   </g>
   <g id="patch_15">
    <path clip-path="url(#p3b0e37df6c)" d="M 181.794196 273.312 
L 188.287289 273.312 
L 188.287289 271.981924 
L 181.794196 271.981924 
z
" style="fill:#0066ff;fill-opacity:0.5;"/>
   </g>
   <g id="patch_16">
    <path clip-path="url(#p3b0e37df6c)" d="M 188.287289 273.312 
L 194.780382 273.312 
L 194.780382 271.861008 
L 188.287289 271.861008 
z
" style="fill:#0066ff;fill-opacity:0.5;"/>
   </g>
   <g id="patch_17">
    <path clip-path="url(#p3b0e37df6c)" d="M 194.780373 273.312 
L 201.273466 273.312 
L 201.273466 271.49826 
L 194.780373 271.49826 
z
" style="fill:#0066ff;fill-opacity:0.5;"/>
   </g>
   <g id="patch_18">
    <path clip-path="url(#p3b0e37df6c)" d="M 201.273475 273.312 
L 207.766568 273.312 
L 207.766568 272.465588 
L 201.273475 272.465588 
z
" style="fill:#0066ff;fill-opacity:0.5;"/>
   </g>
   <g id="patch_19">
    <path clip-path="url(#p3b0e37df6c)" d="M 207.766559 273.312 
L 214.259652 273.312 
L 214.259652 272.223756 
L 207.766559 272.223756 
z
" style="fill:#0066ff;fill-opacity:0.5;"/>
   </g>
   <g id="patch_20">
    <path clip-path="url(#p3b0e37df6c)" d="M 214.259652 273.312 
L 220.752735 273.312 
L 220.752735 271.377344 
L 214.259652 271.377344 
z
" style="fill:#0066ff;fill-opacity:0.5;"/>
   </g>
   <g id="patch_21">
    <path clip-path="url(#p3b0e37df6c)" d="M 220.752745 273.312 
L 227.245838 273.312 
L 227.245838 272.223756 
L 220.752745 272.223756 
z
" style="fill:#0066ff;fill-opacity:0.5;"/>
   </g>
   <g id="patch_22">
    <path clip-path="url(#p3b0e37df6c)" d="M 227.245828 273.312 
L 233.738922 273.312 
L 233.738922 270.772763 
L 227.245828 270.772763 
z
" style="fill:#0066ff;fill-opacity:0.5;"/>
   </g>
   <g id="patch_23">
    <path clip-path="url(#p3b0e37df6c)" d="M 233.738931 273.312 
L 240.232024 273.312 
L 240.232024 270.772763 
L 233.738931 270.772763 
z
" style="fill:#0066ff;fill-opacity:0.5;"/>
   </g>
   <g id="patch_24">
    <path clip-path="url(#p3b0e37df6c)" d="M 240.232015 273.312 
L 246.725098 273.312 
L 246.725098 270.047267 
L 240.232015 270.047267 
z
" style="fill:#0066ff;fill-opacity:0.5;"/>
   </g>
   <g id="patch_25">
    <path clip-path="url(#p3b0e37df6c)" d="M 246.725098 273.312 
L 253.218191 273.312 
L 253.218191 269.805435 
L 246.725098 269.805435 
z
" style="fill:#0066ff;fill-opacity:0.5;"/>
   </g>
   <g id="patch_26">
    <path clip-path="url(#p3b0e37df6c)" d="M 253.218201 273.312 
L 259.711294 273.312 
L 259.711294 270.772763 
L 253.218201 270.772763 
z
" style="fill:#0066ff;fill-opacity:0.5;"/>
   </g>
   <g id="patch_27">
    <path clip-path="url(#p3b0e37df6c)" d="M 259.711284 273.312 
L 266.204368 273.312 
L 266.204368 270.651847 
L 259.711284 270.651847 
z
" style="fill:#0066ff;fill-opacity:0.5;"/>
   </g>
   <g id="patch_28">
    <path clip-path="url(#p3b0e37df6c)" d="M 266.204368 273.312 
L 272.697471 273.312 
L 272.697471 271.135511 
L 266.204368 271.135511 
z
" style="fill:#0066ff;fill-opacity:0.5;"/>
   </g>
   <g id="patch_29">
    <path clip-path="url(#p3b0e37df6c)" d="M 272.697471 273.312 
L 279.190554 273.312 
L 279.190554 270.168183 
L 272.697471 270.168183 
z
" style="fill:#0066ff;fill-opacity:0.5;"/>
   </g>
   <g id="patch_30">
    <path clip-path="url(#p3b0e37df6c)" d="M 279.190573 273.312 
L 285.683676 273.312 
L 285.683676 271.49826 
L 279.190573 271.49826 
z
" style="fill:#0066ff;fill-opacity:0.5;"/>
   </g>
   <g id="patch_31">
    <path clip-path="url(#p3b0e37df6c)" d="M 285.683657 273.312 
L 292.17674 273.312 
L 292.17674 270.530931 
L 285.683657 270.530931 
z
" style="fill:#0066ff;fill-opacity:0.5;"/>
   </g>
   <g id="patch_32">
    <path clip-path="url(#p3b0e37df6c)" d="M 292.17674 273.312 
L 298.669824 273.312 
L 298.669824 271.861008 
L 292.17674 271.861008 
z
" style="fill:#0066ff;fill-opacity:0.5;"/>
   </g>
   <g id="patch_33">
    <path clip-path="url(#p3b0e37df6c)" d="M 298.669824 273.312 
L 305.162927 273.312 
L 305.162927 269.926351 
L 298.669824 269.926351 
z
" style="fill:#0066ff;fill-opacity:0.5;"/>
   </g>
   <g id="patch_34">
    <path clip-path="url(#p3b0e37df6c)" d="M 305.162927 273.312 
L 311.65601 273.312 
L 311.65601 271.014595 
L 305.162927 271.014595 
z
" style="fill:#0066ff;fill-opacity:0.5;"/>
   </g>
   <g id="patch_35">
    <path clip-path="url(#p3b0e37df6c)" d="M 311.65601 273.312 
L 318.149094 273.312 
L 318.149094 269.805435 
L 311.65601 269.805435 
z
" style="fill:#0066ff;fill-opacity:0.5;"/>
   </g>
   <g id="patch_36">
    <path clip-path="url(#p3b0e37df6c)" d="M 318.149113 273.312 
L 324.642215 273.312 
L 324.642215 269.926351 
L 318.149113 269.926351 
z
" style="fill:#0066ff;fill-opacity:0.5;"/>
   </g>
   <g id="patch_37">
    <path clip-path="url(#p3b0e37df6c)" d="M 324.642196 273.312 
L 331.13528 273.312 
L 331.13528 269.442687 
L 324.642196 269.442687 
z
" style="fill:#0066ff;fill-opacity:0.5;"/>
   </g>
   <g id="patch_38">
    <path clip-path="url(#p3b0e37df6c)" d="M 331.13528 273.312 
L 337.628383 273.312 
L 337.628383 267.991695 
L 331.13528 267.991695 
z
" style="fill:#0066ff;fill-opacity:0.5;"/>
   </g>
   <g id="patch_39">
    <path clip-path="url(#p3b0e37df6c)" d="M 337.628383 273.312 
L 344.121466 273.312 
L 344.121466 268.112611 
L 337.628383 268.112611 
z
" style="fill:#0066ff;fill-opacity:0.5;"/>
   </g>
   <g id="patch_40">
    <path clip-path="url(#p3b0e37df6c)" d="M 344.121466 273.312 
L 350.61455 273.312 
L 350.61455 267.145282 
L 344.121466 267.145282 
z
" style="fill:#0066ff;fill-opacity:0.5;"/>
   </g>
   <g id="patch_41">
    <path clip-path="url(#p3b0e37df6c)" d="M 350.614569 273.312 
L 357.107671 273.312 
L 357.107671 260.978565 
L 350.614569 260.978565 
z
" style="fill:#0066ff;fill-opacity:0.5;"/>
   </g>
   <g id="patch_42">
    <path clip-path="url(#p3b0e37df6c)" d="M 357.107652 273.312 
L 363.600736 273.312 
L 363.600736 262.187725 
L 357.107652 262.187725 
z
" style="fill:#0066ff;fill-opacity:0.5;"/>
   </g>
   <g id="patch_43">
    <path clip-path="url(#p3b0e37df6c)" d="M 363.600736 273.312 
L 370.093838 273.312 
L 370.093838 265.210626 
L 363.600736 265.210626 
z
" style="fill:#0066ff;fill-opacity:0.5;"/>
   </g>
   <g id="patch_44">
    <path clip-path="url(#p3b0e37df6c)" d="M 370.093838 273.312 
L 376.586922 273.312 
L 376.586922 266.177954 
L 370.093838 266.177954 
z
" style="fill:#0066ff;fill-opacity:0.5;"/>
   </g>
   <g id="patch_45">
    <path clip-path="url(#p3b0e37df6c)" d="M 376.586922 273.312 
L 383.080006 273.312 
L 383.080006 271.740092 
L 376.586922 271.740092 
z
" style="fill:#0066ff;fill-opacity:0.5;"/>
   </g>
   <g id="patch_46">
    <path clip-path="url(#p3b0e37df6c)" d="M 383.080025 273.312 
L 389.573127 273.312 
L 389.573127 272.828336 
L 383.080025 272.828336 
z
" style="fill:#0066ff;fill-opacity:0.5;"/>
   </g>
   <g id="patch_47">
    <path clip-path="url(#p3b0e37df6c)" d="M 389.573108 273.312 
L 396.066192 273.312 
L 396.066192 272.70742 
L 389.573108 272.70742 
z
" style="fill:#0066ff;fill-opacity:0.5;"/>
   </g>
   <g id="patch_48">
    <path clip-path="url(#p3b0e37df6c)" d="M 396.066192 273.312 
L 402.559275 273.312 
L 402.559275 273.191084 
L 396.066192 273.191084 
z
" style="fill:#0066ff;fill-opacity:0.5;"/>
   </g>
   <g id="patch_49">
    <path clip-path="url(#p3b0e37df6c)" d="M 402.559275 273.312 
L 409.052378 273.312 
L 409.052378 273.070168 
L 402.559275 273.070168 
z
" style="fill:#0066ff;fill-opacity:0.5;"/>
   </g>
   <g id="patch_50">
    <path clip-path="url(#p3b0e37df6c)" d="M 409.052378 273.312 
L 415.545462 273.312 
L 415.545462 273.312 
L 409.052378 273.312 
z
" style="fill:#0066ff;fill-opacity:0.5;"/>
   </g>
   <g id="patch_51">
    <path clip-path="url(#p3b0e37df6c)" d="M 415.545481 273.312 
L 422.038583 273.312 
L 422.038583 273.312 
L 415.545481 273.312 
z
" style="fill:#0066ff;fill-opacity:0.5;"/>
   </g>
   <g id="patch_52">
    <path clip-path="url(#p3b0e37df6c)" d="M 422.038564 273.312 
L 428.531648 273.312 
L 428.531648 273.312 
L 422.038564 273.312 
z
" style="fill:#0066ff;fill-opacity:0.5;"/>
   </g>
   <g id="patch_53">
    <path clip-path="url(#p3b0e37df6c)" d="M 103.877102 273.312 
L 110.370193 273.312 
L 110.370193 260.011237 
L 103.877102 260.011237 
z
" style="fill:#ff0000;fill-opacity:0.5;"/>
   </g>
   <g id="patch_54">
    <path clip-path="url(#p3b0e37df6c)" d="M 110.370193 273.312 
L 116.863284 273.312 
L 116.863284 252.514443 
L 110.370193 252.514443 
z
" style="fill:#ff0000;fill-opacity:0.5;"/>
   </g>
   <g id="patch_55">
    <path clip-path="url(#p3b0e37df6c)" d="M 116.863284 273.312 
L 123.356375 273.312 
L 123.356375 246.468641 
L 116.863284 246.468641 
z
" style="fill:#ff0000;fill-opacity:0.5;"/>
   </g>
   <g id="patch_56">
    <path clip-path="url(#p3b0e37df6c)" d="M 123.356374 273.312 
L 129.849465 273.312 
L 129.849465 260.736733 
L 123.356374 260.736733 
z
" style="fill:#ff0000;fill-opacity:0.5;"/>
   </g>
   <g id="patch_57">
    <path clip-path="url(#p3b0e37df6c)" d="M 129.849465 273.312 
L 136.342556 273.312 
L 136.342556 266.90345 
L 129.849465 266.90345 
z
" style="fill:#ff0000;fill-opacity:0.5;"/>
   </g>
   <g id="patch_58">
    <path clip-path="url(#p3b0e37df6c)" d="M 136.342554 273.312 
L 142.835644 273.312 
L 142.835644 267.508031 
L 136.342554 267.508031 
z
" style="fill:#ff0000;fill-opacity:0.5;"/>
   </g>
   <g id="patch_59">
    <path clip-path="url(#p3b0e37df6c)" d="M 142.835647 273.312 
L 149.32874 273.312 
L 149.32874 268.475359 
L 142.835647 268.475359 
z
" style="fill:#ff0000;fill-opacity:0.5;"/>
   </g>
   <g id="patch_60">
    <path clip-path="url(#p3b0e37df6c)" d="M 149.32874 273.312 
L 155.821828 273.312 
L 155.821828 269.200855 
L 149.32874 269.200855 
z
" style="fill:#ff0000;fill-opacity:0.5;"/>
   </g>
   <g id="patch_61">
    <path clip-path="url(#p3b0e37df6c)" d="M 155.821828 273.312 
L 162.314921 273.312 
L 162.314921 269.563603 
L 155.821828 269.563603 
z
" style="fill:#ff0000;fill-opacity:0.5;"/>
   </g>
   <g id="patch_62">
    <path clip-path="url(#p3b0e37df6c)" d="M 162.314926 273.312 
L 168.808014 273.312 
L 168.808014 270.168183 
L 162.314926 270.168183 
z
" style="fill:#ff0000;fill-opacity:0.5;"/>
   </g>
   <g id="patch_63">
    <path clip-path="url(#p3b0e37df6c)" d="M 168.80801 273.312 
L 175.301103 273.312 
L 175.301103 269.321771 
L 168.80801 269.321771 
z
" style="fill:#ff0000;fill-opacity:0.5;"/>
   </g>
   <g id="patch_64">
    <path clip-path="url(#p3b0e37df6c)" d="M 175.301103 273.312 
L 181.794191 273.312 
L 181.794191 269.442687 
L 175.301103 269.442687 
z
" style="fill:#ff0000;fill-opacity:0.5;"/>
   </g>
   <g id="patch_65">
    <path clip-path="url(#p3b0e37df6c)" d="M 181.794196 273.312 
L 188.287289 273.312 
L 188.287289 271.014595 
L 181.794196 271.014595 
z
" style="fill:#ff0000;fill-opacity:0.5;"/>
   </g>
   <g id="patch_66">
    <path clip-path="url(#p3b0e37df6c)" d="M 188.287289 273.312 
L 194.780382 273.312 
L 194.780382 271.256427 
L 188.287289 271.256427 
z
" style="fill:#ff0000;fill-opacity:0.5;"/>
   </g>
   <g id="patch_67">
    <path clip-path="url(#p3b0e37df6c)" d="M 194.780373 273.312 
L 201.273466 273.312 
L 201.273466 270.893679 
L 194.780373 270.893679 
z
" style="fill:#ff0000;fill-opacity:0.5;"/>
   </g>
   <g id="patch_68">
    <path clip-path="url(#p3b0e37df6c)" d="M 201.273475 273.312 
L 207.766568 273.312 
L 207.766568 271.49826 
L 201.273475 271.49826 
z
" style="fill:#ff0000;fill-opacity:0.5;"/>
   </g>
   <g id="patch_69">
    <path clip-path="url(#p3b0e37df6c)" d="M 207.766559 273.312 
L 214.259652 273.312 
L 214.259652 270.772763 
L 207.766559 270.772763 
z
" style="fill:#ff0000;fill-opacity:0.5;"/>
   </g>
   <g id="patch_70">
    <path clip-path="url(#p3b0e37df6c)" d="M 214.259652 273.312 
L 220.752735 273.312 
L 220.752735 270.410015 
L 214.259652 270.410015 
z
" style="fill:#ff0000;fill-opacity:0.5;"/>
   </g>
   <g id="patch_71">
    <path clip-path="url(#p3b0e37df6c)" d="M 220.752745 273.312 
L 227.245838 273.312 
L 227.245838 270.410015 
L 220.752745 270.410015 
z
" style="fill:#ff0000;fill-opacity:0.5;"/>
   </g>
   <g id="patch_72">
    <path clip-path="url(#p3b0e37df6c)" d="M 227.245828 273.312 
L 233.738922 273.312 
L 233.738922 270.651847 
L 227.245828 270.651847 
z
" style="fill:#ff0000;fill-opacity:0.5;"/>
   </g>
   <g id="patch_73">
    <path clip-path="url(#p3b0e37df6c)" d="M 233.738931 273.312 
L 240.232024 273.312 
L 240.232024 269.079939 
L 233.738931 269.079939 
z
" style="fill:#ff0000;fill-opacity:0.5;"/>
   </g>
   <g id="patch_74">
    <path clip-path="url(#p3b0e37df6c)" d="M 240.232015 273.312 
L 246.725098 273.312 
L 246.725098 270.651847 
L 240.232015 270.651847 
z
" style="fill:#ff0000;fill-opacity:0.5;"/>
   </g>
   <g id="patch_75">
    <path clip-path="url(#p3b0e37df6c)" d="M 246.725098 273.312 
L 253.218191 273.312 
L 253.218191 269.684519 
L 246.725098 269.684519 
z
" style="fill:#ff0000;fill-opacity:0.5;"/>
   </g>
   <g id="patch_76">
    <path clip-path="url(#p3b0e37df6c)" d="M 253.218201 273.312 
L 259.711294 273.312 
L 259.711294 267.628947 
L 253.218201 267.628947 
z
" style="fill:#ff0000;fill-opacity:0.5;"/>
   </g>
   <g id="patch_77">
    <path clip-path="url(#p3b0e37df6c)" d="M 259.711284 273.312 
L 266.204368 273.312 
L 266.204368 268.717191 
L 259.711284 268.717191 
z
" style="fill:#ff0000;fill-opacity:0.5;"/>
   </g>
   <g id="patch_78">
    <path clip-path="url(#p3b0e37df6c)" d="M 266.204368 273.312 
L 272.697471 273.312 
L 272.697471 268.838107 
L 266.204368 268.838107 
z
" style="fill:#ff0000;fill-opacity:0.5;"/>
   </g>
   <g id="patch_79">
    <path clip-path="url(#p3b0e37df6c)" d="M 272.697471 273.312 
L 279.190554 273.312 
L 279.190554 267.628947 
L 272.697471 267.628947 
z
" style="fill:#ff0000;fill-opacity:0.5;"/>
   </g>
   <g id="patch_80">
    <path clip-path="url(#p3b0e37df6c)" d="M 279.190573 273.312 
L 285.683676 273.312 
L 285.683676 267.991695 
L 279.190573 267.991695 
z
" style="fill:#ff0000;fill-opacity:0.5;"/>
   </g>
   <g id="patch_81">
    <path clip-path="url(#p3b0e37df6c)" d="M 285.683657 273.312 
L 292.17674 273.312 
L 292.17674 268.717191 
L 285.683657 268.717191 
z
" style="fill:#ff0000;fill-opacity:0.5;"/>
   </g>
   <g id="patch_82">
    <path clip-path="url(#p3b0e37df6c)" d="M 292.17674 273.312 
L 298.669824 273.312 
L 298.669824 269.321771 
L 292.17674 269.321771 
z
" style="fill:#ff0000;fill-opacity:0.5;"/>
   </g>
   <g id="patch_83">
    <path clip-path="url(#p3b0e37df6c)" d="M 298.669824 273.312 
L 305.162927 273.312 
L 305.162927 269.200855 
L 298.669824 269.200855 
z
" style="fill:#ff0000;fill-opacity:0.5;"/>
   </g>
   <g id="patch_84">
    <path clip-path="url(#p3b0e37df6c)" d="M 305.162927 273.312 
L 311.65601 273.312 
L 311.65601 269.321771 
L 305.162927 269.321771 
z
" style="fill:#ff0000;fill-opacity:0.5;"/>
   </g>
   <g id="patch_85">
    <path clip-path="url(#p3b0e37df6c)" d="M 311.65601 273.312 
L 318.149094 273.312 
L 318.149094 270.168183 
L 311.65601 270.168183 
z
" style="fill:#ff0000;fill-opacity:0.5;"/>
   </g>
   <g id="patch_86">
    <path clip-path="url(#p3b0e37df6c)" d="M 318.149113 273.312 
L 324.642215 273.312 
L 324.642215 268.596275 
L 318.149113 268.596275 
z
" style="fill:#ff0000;fill-opacity:0.5;"/>
   </g>
   <g id="patch_87">
    <path clip-path="url(#p3b0e37df6c)" d="M 324.642196 273.312 
L 331.13528 273.312 
L 331.13528 267.749863 
L 324.642196 267.749863 
z
" style="fill:#ff0000;fill-opacity:0.5;"/>
   </g>
   <g id="patch_88">
    <path clip-path="url(#p3b0e37df6c)" d="M 331.13528 273.312 
L 337.628383 273.312 
L 337.628383 267.749863 
L 331.13528 267.749863 
z
" style="fill:#ff0000;fill-opacity:0.5;"/>
   </g>
   <g id="patch_89">
    <path clip-path="url(#p3b0e37df6c)" d="M 337.628383 273.312 
L 344.121466 273.312 
L 344.121466 264.48513 
L 337.628383 264.48513 
z
" style="fill:#ff0000;fill-opacity:0.5;"/>
   </g>
   <g id="patch_90">
    <path clip-path="url(#p3b0e37df6c)" d="M 344.121466 273.312 
L 350.61455 273.312 
L 350.61455 261.945893 
L 344.121466 261.945893 
z
" style="fill:#ff0000;fill-opacity:0.5;"/>
   </g>
   <g id="patch_91">
    <path clip-path="url(#p3b0e37df6c)" d="M 350.614569 273.312 
L 357.107671 273.312 
L 357.107671 256.504672 
L 350.614569 256.504672 
z
" style="fill:#ff0000;fill-opacity:0.5;"/>
   </g>
   <g id="patch_92">
    <path clip-path="url(#p3b0e37df6c)" d="M 357.107652 273.312 
L 363.600736 273.312 
L 363.600736 260.132153 
L 357.107652 260.132153 
z
" style="fill:#ff0000;fill-opacity:0.5;"/>
   </g>
   <g id="patch_93">
    <path clip-path="url(#p3b0e37df6c)" d="M 363.600736 273.312 
L 370.093838 273.312 
L 370.093838 264.48513 
L 363.600736 264.48513 
z
" style="fill:#ff0000;fill-opacity:0.5;"/>
   </g>
   <g id="patch_94">
    <path clip-path="url(#p3b0e37df6c)" d="M 370.093838 273.312 
L 376.586922 273.312 
L 376.586922 264.122382 
L 370.093838 264.122382 
z
" style="fill:#ff0000;fill-opacity:0.5;"/>
   </g>
   <g id="patch_95">
    <path clip-path="url(#p3b0e37df6c)" d="M 376.586922 273.312 
L 383.080006 273.312 
L 383.080006 270.410015 
L 376.586922 270.410015 
z
" style="fill:#ff0000;fill-opacity:0.5;"/>
   </g>
   <g id="patch_96">
    <path clip-path="url(#p3b0e37df6c)" d="M 383.080025 273.312 
L 389.573127 273.312 
L 389.573127 272.344672 
L 383.080025 272.344672 
z
" style="fill:#ff0000;fill-opacity:0.5;"/>
   </g>
   <g id="patch_97">
    <path clip-path="url(#p3b0e37df6c)" d="M 389.573108 273.312 
L 396.066192 273.312 
L 396.066192 273.070168 
L 389.573108 273.070168 
z
" style="fill:#ff0000;fill-opacity:0.5;"/>
   </g>
   <g id="patch_98">
    <path clip-path="url(#p3b0e37df6c)" d="M 396.066192 273.312 
L 402.559275 273.312 
L 402.559275 273.312 
L 396.066192 273.312 
z
" style="fill:#ff0000;fill-opacity:0.5;"/>
   </g>
   <g id="patch_99">
    <path clip-path="url(#p3b0e37df6c)" d="M 402.559275 273.312 
L 409.052378 273.312 
L 409.052378 273.070168 
L 402.559275 273.070168 
z
" style="fill:#ff0000;fill-opacity:0.5;"/>
   </g>
   <g id="patch_100">
    <path clip-path="url(#p3b0e37df6c)" d="M 409.052378 273.312 
L 415.545462 273.312 
L 415.545462 273.312 
L 409.052378 273.312 
z
" style="fill:#ff0000;fill-opacity:0.5;"/>
   </g>
   <g id="patch_101">
    <path clip-path="url(#p3b0e37df6c)" d="M 415.545481 273.312 
L 422.038583 273.312 
L 422.038583 273.312 
L 415.545481 273.312 
z
" style="fill:#ff0000;fill-opacity:0.5;"/>
   </g>
   <g id="patch_102">
    <path clip-path="url(#p3b0e37df6c)" d="M 422.038564 273.312 
L 428.531648 273.312 
L 428.531648 273.070168 
L 422.038564 273.070168 
z
" style="fill:#ff0000;fill-opacity:0.5;"/>
   </g>
   <g id="matplotlib.axis_1">
    <g id="xtick_1">
     <g id="line2d_1">
      <defs>
       <path d="M 0 0 
L 0 3.5 
" id="m9cf5163028" style="stroke:#000000;stroke-width:0.8;"/>
      </defs>
      <g>
       <use style="stroke:#000000;stroke-width:0.8;" x="103.694495" xlink:href="#m9cf5163028" y="273.312"/>
      </g>
     </g>
     <g id="text_1">
      <!-- 0 -->
      <g transform="translate(97.577464 296.255125)scale(0.22 -0.22)">
       <defs>
        <path d="M 51.703125 34.421875 
Q 51.703125 17.1875 45.625 8.09375 
Q 39.546875 -0.984375 27.6875 -0.984375 
Q 15.828125 -0.984375 9.859375 8.046875 
Q 3.90625 17.09375 3.90625 34.421875 
Q 3.90625 52.15625 9.6875 60.984375 
Q 15.484375 69.828125 27.984375 69.828125 
Q 40.140625 69.828125 45.921875 60.890625 
Q 51.703125 51.953125 51.703125 34.421875 
z
M 42.78125 34.421875 
Q 42.78125 49.3125 39.328125 56 
Q 35.890625 62.703125 27.984375 62.703125 
Q 19.875 62.703125 16.328125 56.109375 
Q 12.796875 49.515625 12.796875 34.421875 
Q 12.796875 19.78125 16.375 12.984375 
Q 19.96875 6.203125 27.78125 6.203125 
Q 35.546875 6.203125 39.15625 13.125 
Q 42.78125 20.0625 42.78125 34.421875 
z
" id="LiberationSans-48"/>
       </defs>
       <use xlink:href="#LiberationSans-48"/>
      </g>
     </g>
    </g>
    <g id="xtick_2">
     <g id="line2d_2">
      <g>
       <use style="stroke:#000000;stroke-width:0.8;" x="203.789932" xlink:href="#m9cf5163028" y="273.312"/>
      </g>
     </g>
     <g id="text_2">
      <!-- 10 -->
      <g transform="translate(191.555869 296.255125)scale(0.22 -0.22)">
       <defs>
        <path d="M 7.625 0 
L 7.625 7.46875 
L 25.140625 7.46875 
L 25.140625 60.40625 
L 9.625 49.3125 
L 9.625 57.625 
L 25.875 68.796875 
L 33.984375 68.796875 
L 33.984375 7.46875 
L 50.734375 7.46875 
L 50.734375 0 
z
" id="LiberationSans-49"/>
       </defs>
       <use xlink:href="#LiberationSans-49"/>
       <use x="55.615234" xlink:href="#LiberationSans-48"/>
      </g>
     </g>
    </g>
    <g id="xtick_3">
     <g id="line2d_3">
      <g>
       <use style="stroke:#000000;stroke-width:0.8;" x="303.885368" xlink:href="#m9cf5163028" y="273.312"/>
      </g>
     </g>
     <g id="text_3">
      <!-- 20 -->
      <g transform="translate(291.651306 296.255125)scale(0.22 -0.22)">
       <defs>
        <path d="M 5.03125 0 
L 5.03125 6.203125 
Q 7.515625 11.921875 11.109375 16.28125 
Q 14.703125 20.65625 18.65625 24.1875 
Q 22.609375 27.734375 26.484375 30.765625 
Q 30.375 33.796875 33.5 36.8125 
Q 36.625 39.84375 38.546875 43.15625 
Q 40.484375 46.484375 40.484375 50.6875 
Q 40.484375 56.34375 37.15625 59.46875 
Q 33.84375 62.59375 27.9375 62.59375 
Q 22.3125 62.59375 18.671875 59.546875 
Q 15.046875 56.5 14.40625 50.984375 
L 5.421875 51.8125 
Q 6.390625 60.0625 12.421875 64.9375 
Q 18.453125 69.828125 27.9375 69.828125 
Q 38.328125 69.828125 43.921875 64.921875 
Q 49.515625 60.015625 49.515625 50.984375 
Q 49.515625 46.96875 47.671875 43.015625 
Q 45.84375 39.0625 42.234375 35.109375 
Q 38.625 31.15625 28.421875 22.859375 
Q 22.796875 18.265625 19.46875 14.578125 
Q 16.15625 10.890625 14.703125 7.46875 
L 50.59375 7.46875 
L 50.59375 0 
z
" id="LiberationSans-50"/>
       </defs>
       <use xlink:href="#LiberationSans-50"/>
       <use x="55.615234" xlink:href="#LiberationSans-48"/>
      </g>
     </g>
    </g>
    <g id="xtick_4">
     <g id="line2d_4">
      <g>
       <use style="stroke:#000000;stroke-width:0.8;" x="403.980804" xlink:href="#m9cf5163028" y="273.312"/>
      </g>
     </g>
     <g id="text_4">
      <!-- 30 -->
      <g transform="translate(391.746742 296.255125)scale(0.22 -0.22)">
       <defs>
        <path d="M 51.21875 19 
Q 51.21875 9.46875 45.15625 4.234375 
Q 39.109375 -0.984375 27.875 -0.984375 
Q 17.4375 -0.984375 11.203125 3.734375 
Q 4.984375 8.453125 3.8125 17.671875 
L 12.890625 18.5 
Q 14.65625 6.296875 27.875 6.296875 
Q 34.515625 6.296875 38.296875 9.5625 
Q 42.09375 12.84375 42.09375 19.28125 
Q 42.09375 24.90625 37.765625 28.046875 
Q 33.453125 31.203125 25.296875 31.203125 
L 20.3125 31.203125 
L 20.3125 38.8125 
L 25.09375 38.8125 
Q 32.328125 38.8125 36.296875 41.96875 
Q 40.28125 45.125 40.28125 50.6875 
Q 40.28125 56.203125 37.03125 59.390625 
Q 33.796875 62.59375 27.390625 62.59375 
Q 21.578125 62.59375 17.984375 59.609375 
Q 14.40625 56.640625 13.8125 51.21875 
L 4.984375 51.90625 
Q 5.953125 60.359375 11.984375 65.09375 
Q 18.015625 69.828125 27.484375 69.828125 
Q 37.84375 69.828125 43.578125 65.015625 
Q 49.3125 60.203125 49.3125 51.609375 
Q 49.3125 45.015625 45.625 40.890625 
Q 41.9375 36.765625 34.90625 35.296875 
L 34.90625 35.109375 
Q 42.625 34.28125 46.921875 29.9375 
Q 51.21875 25.59375 51.21875 19 
z
" id="LiberationSans-51"/>
       </defs>
       <use xlink:href="#LiberationSans-51"/>
       <use x="55.615234" xlink:href="#LiberationSans-48"/>
      </g>
     </g>
    </g>
    <g id="text_5">
     <!-- Anomaly Score -->
     <g transform="translate(191.619219 320.76325)scale(0.22 -0.22)">
      <defs>
       <path d="M 56.984375 0 
L 49.125 20.125 
L 17.78125 20.125 
L 9.859375 0 
L 0.203125 0 
L 28.265625 68.796875 
L 38.875 68.796875 
L 66.5 0 
z
M 33.453125 61.765625 
L 33.015625 60.40625 
Q 31.78125 56.34375 29.390625 50 
L 20.609375 27.390625 
L 46.34375 27.390625 
L 37.5 50.09375 
Q 36.140625 53.46875 34.765625 57.71875 
z
" id="LiberationSans-65"/>
       <path d="M 40.28125 0 
L 40.28125 33.5 
Q 40.28125 38.71875 39.25 41.59375 
Q 38.234375 44.484375 35.984375 45.75 
Q 33.734375 47.015625 29.390625 47.015625 
Q 23.046875 47.015625 19.375 42.671875 
Q 15.71875 38.328125 15.71875 30.609375 
L 15.71875 0 
L 6.9375 0 
L 6.9375 41.546875 
Q 6.9375 50.78125 6.640625 52.828125 
L 14.9375 52.828125 
Q 14.984375 52.59375 15.03125 51.515625 
Q 15.09375 50.4375 15.15625 49.046875 
Q 15.234375 47.65625 15.328125 43.796875 
L 15.484375 43.796875 
Q 18.5 49.265625 22.484375 51.53125 
Q 26.46875 53.8125 32.375 53.8125 
Q 41.0625 53.8125 45.09375 49.484375 
Q 49.125 45.171875 49.125 35.203125 
L 49.125 0 
z
" id="LiberationSans-110"/>
       <path d="M 51.421875 26.46875 
Q 51.421875 12.59375 45.3125 5.796875 
Q 39.203125 -0.984375 27.59375 -0.984375 
Q 16.015625 -0.984375 10.109375 6.078125 
Q 4.203125 13.140625 4.203125 26.46875 
Q 4.203125 53.8125 27.875 53.8125 
Q 39.984375 53.8125 45.703125 47.140625 
Q 51.421875 40.484375 51.421875 26.46875 
z
M 42.1875 26.46875 
Q 42.1875 37.40625 38.9375 42.359375 
Q 35.6875 47.3125 28.03125 47.3125 
Q 20.3125 47.3125 16.859375 42.25 
Q 13.421875 37.203125 13.421875 26.46875 
Q 13.421875 16.015625 16.8125 10.765625 
Q 20.21875 5.515625 27.484375 5.515625 
Q 35.40625 5.515625 38.796875 10.59375 
Q 42.1875 15.671875 42.1875 26.46875 
z
" id="LiberationSans-111"/>
       <path d="M 37.5 0 
L 37.5 33.5 
Q 37.5 41.15625 35.390625 44.078125 
Q 33.296875 47.015625 27.828125 47.015625 
Q 22.21875 47.015625 18.9375 42.71875 
Q 15.671875 38.421875 15.671875 30.609375 
L 15.671875 0 
L 6.9375 0 
L 6.9375 41.546875 
Q 6.9375 50.78125 6.640625 52.828125 
L 14.9375 52.828125 
Q 14.984375 52.59375 15.03125 51.515625 
Q 15.09375 50.4375 15.15625 49.046875 
Q 15.234375 47.65625 15.328125 43.796875 
L 15.484375 43.796875 
Q 18.3125 49.421875 21.96875 51.609375 
Q 25.640625 53.8125 30.90625 53.8125 
Q 36.921875 53.8125 40.40625 51.421875 
Q 43.890625 49.03125 45.265625 43.796875 
L 45.40625 43.796875 
Q 48.140625 49.125 52.015625 51.46875 
Q 55.90625 53.8125 61.421875 53.8125 
Q 69.4375 53.8125 73.0625 49.46875 
Q 76.703125 45.125 76.703125 35.203125 
L 76.703125 0 
L 68.015625 0 
L 68.015625 33.5 
Q 68.015625 41.15625 65.90625 44.078125 
Q 63.8125 47.015625 58.34375 47.015625 
Q 52.59375 47.015625 49.390625 42.75 
Q 46.1875 38.484375 46.1875 30.609375 
L 46.1875 0 
z
" id="LiberationSans-109"/>
       <path d="M 20.21875 -0.984375 
Q 12.25 -0.984375 8.25 3.21875 
Q 4.25 7.421875 4.25 14.75 
Q 4.25 22.953125 9.640625 27.34375 
Q 15.046875 31.734375 27.046875 32.03125 
L 38.921875 32.234375 
L 38.921875 35.109375 
Q 38.921875 41.546875 36.1875 44.328125 
Q 33.453125 47.125 27.59375 47.125 
Q 21.6875 47.125 19 45.109375 
Q 16.3125 43.109375 15.765625 38.71875 
L 6.59375 39.546875 
Q 8.84375 53.8125 27.78125 53.8125 
Q 37.75 53.8125 42.765625 49.234375 
Q 47.796875 44.671875 47.796875 36.03125 
L 47.796875 13.28125 
Q 47.796875 9.375 48.828125 7.390625 
Q 49.859375 5.421875 52.734375 5.421875 
Q 54 5.421875 55.609375 5.765625 
L 55.609375 0.296875 
Q 52.296875 -0.484375 48.828125 -0.484375 
Q 43.953125 -0.484375 41.71875 2.078125 
Q 39.5 4.640625 39.203125 10.109375 
L 38.921875 10.109375 
Q 35.546875 4.046875 31.078125 1.53125 
Q 26.609375 -0.984375 20.21875 -0.984375 
z
M 22.21875 5.609375 
Q 27.046875 5.609375 30.8125 7.8125 
Q 34.578125 10.015625 36.75 13.84375 
Q 38.921875 17.671875 38.921875 21.734375 
L 38.921875 26.078125 
L 29.296875 25.875 
Q 23.09375 25.78125 19.890625 24.609375 
Q 16.703125 23.4375 14.984375 21 
Q 13.28125 18.5625 13.28125 14.59375 
Q 13.28125 10.296875 15.59375 7.953125 
Q 17.921875 5.609375 22.21875 5.609375 
z
" id="LiberationSans-97"/>
       <path d="M 6.734375 0 
L 6.734375 72.46875 
L 15.53125 72.46875 
L 15.53125 0 
z
" id="LiberationSans-108"/>
       <path d="M 9.328125 -20.75 
Q 5.71875 -20.75 3.265625 -20.21875 
L 3.265625 -13.625 
Q 5.125 -13.921875 7.375 -13.921875 
Q 15.578125 -13.921875 20.359375 -1.859375 
L 21.1875 0.25 
L 0.25 52.828125 
L 9.625 52.828125 
L 20.75 23.640625 
Q 21 22.953125 21.34375 22 
Q 21.6875 21.046875 23.53125 15.625 
Q 25.390625 10.203125 25.53125 9.578125 
L 28.953125 19.1875 
L 40.53125 52.828125 
L 49.8125 52.828125 
L 29.5 0 
Q 26.21875 -8.453125 23.390625 -12.578125 
Q 20.5625 -16.703125 17.109375 -18.71875 
Q 13.671875 -20.75 9.328125 -20.75 
z
" id="LiberationSans-121"/>
       <path id="LiberationSans-32"/>
       <path d="M 62.109375 19 
Q 62.109375 9.46875 54.65625 4.234375 
Q 47.21875 -0.984375 33.6875 -0.984375 
Q 8.546875 -0.984375 4.546875 16.5 
L 13.578125 18.3125 
Q 15.140625 12.109375 20.21875 9.203125 
Q 25.296875 6.296875 34.03125 6.296875 
Q 43.0625 6.296875 47.96875 9.390625 
Q 52.875 12.5 52.875 18.5 
Q 52.875 21.875 51.34375 23.96875 
Q 49.8125 26.078125 47.015625 27.4375 
Q 44.234375 28.8125 40.375 29.734375 
Q 36.53125 30.671875 31.84375 31.734375 
Q 23.6875 33.546875 19.453125 35.34375 
Q 15.234375 37.15625 12.796875 39.375 
Q 10.359375 41.609375 9.0625 44.578125 
Q 7.765625 47.5625 7.765625 51.421875 
Q 7.765625 60.25 14.53125 65.03125 
Q 21.296875 69.828125 33.890625 69.828125 
Q 45.609375 69.828125 51.8125 66.234375 
Q 58.015625 62.640625 60.5 54 
L 51.3125 52.390625 
Q 49.8125 57.859375 45.5625 60.328125 
Q 41.3125 62.796875 33.796875 62.796875 
Q 25.53125 62.796875 21.1875 60.0625 
Q 16.84375 57.328125 16.84375 51.90625 
Q 16.84375 48.734375 18.53125 46.65625 
Q 20.21875 44.578125 23.390625 43.140625 
Q 26.5625 41.703125 36.03125 39.59375 
Q 39.203125 38.875 42.359375 38.109375 
Q 45.515625 37.359375 48.390625 36.296875 
Q 51.265625 35.25 53.78125 33.828125 
Q 56.296875 32.421875 58.15625 30.375 
Q 60.015625 28.328125 61.0625 25.53125 
Q 62.109375 22.75 62.109375 19 
z
" id="LiberationSans-83"/>
       <path d="M 13.421875 26.65625 
Q 13.421875 16.109375 16.734375 11.03125 
Q 20.0625 5.953125 26.765625 5.953125 
Q 31.453125 5.953125 34.59375 8.484375 
Q 37.75 11.03125 38.484375 16.3125 
L 47.359375 15.71875 
Q 46.34375 8.109375 40.875 3.5625 
Q 35.40625 -0.984375 27 -0.984375 
Q 15.921875 -0.984375 10.078125 6.015625 
Q 4.25 13.03125 4.25 26.46875 
Q 4.25 39.796875 10.109375 46.796875 
Q 15.96875 53.8125 26.90625 53.8125 
Q 35.015625 53.8125 40.359375 49.609375 
Q 45.703125 45.40625 47.078125 38.03125 
L 38.03125 37.359375 
Q 37.359375 41.75 34.5625 44.328125 
Q 31.78125 46.921875 26.65625 46.921875 
Q 19.671875 46.921875 16.546875 42.28125 
Q 13.421875 37.640625 13.421875 26.65625 
z
" id="LiberationSans-99"/>
       <path d="M 6.9375 0 
L 6.9375 40.53125 
Q 6.9375 46.09375 6.640625 52.828125 
L 14.9375 52.828125 
Q 15.328125 43.84375 15.328125 42.046875 
L 15.53125 42.046875 
Q 17.625 48.828125 20.359375 51.3125 
Q 23.09375 53.8125 28.078125 53.8125 
Q 29.828125 53.8125 31.640625 53.328125 
L 31.640625 45.265625 
Q 29.890625 45.75 26.953125 45.75 
Q 21.484375 45.75 18.59375 41.03125 
Q 15.71875 36.328125 15.71875 27.546875 
L 15.71875 0 
z
" id="LiberationSans-114"/>
       <path d="M 13.484375 24.5625 
Q 13.484375 15.484375 17.234375 10.546875 
Q 21 5.609375 28.21875 5.609375 
Q 33.9375 5.609375 37.375 7.90625 
Q 40.828125 10.203125 42.046875 13.71875 
L 49.75 11.53125 
Q 45.015625 -0.984375 28.21875 -0.984375 
Q 16.5 -0.984375 10.375 6 
Q 4.25 12.984375 4.25 26.765625 
Q 4.25 39.84375 10.375 46.828125 
Q 16.5 53.8125 27.875 53.8125 
Q 51.171875 53.8125 51.171875 25.734375 
L 51.171875 24.5625 
z
M 42.09375 31.296875 
Q 41.359375 39.65625 37.84375 43.484375 
Q 34.328125 47.3125 27.734375 47.3125 
Q 21.34375 47.3125 17.609375 43.03125 
Q 13.875 38.765625 13.578125 31.296875 
z
" id="LiberationSans-101"/>
      </defs>
      <use xlink:href="#LiberationSans-65"/>
      <use x="66.699219" xlink:href="#LiberationSans-110"/>
      <use x="122.314453" xlink:href="#LiberationSans-111"/>
      <use x="177.929688" xlink:href="#LiberationSans-109"/>
      <use x="261.230469" xlink:href="#LiberationSans-97"/>
      <use x="316.845703" xlink:href="#LiberationSans-108"/>
      <use x="339.0625" xlink:href="#LiberationSans-121"/>
      <use x="389.0625" xlink:href="#LiberationSans-32"/>
      <use x="416.845703" xlink:href="#LiberationSans-83"/>
      <use x="483.544922" xlink:href="#LiberationSans-99"/>
      <use x="533.544922" xlink:href="#LiberationSans-111"/>
      <use x="589.160156" xlink:href="#LiberationSans-114"/>
      <use x="622.460938" xlink:href="#LiberationSans-101"/>
     </g>
    </g>
   </g>
   <g id="matplotlib.axis_2">
    <g id="ytick_1">
     <g id="line2d_5">
      <defs>
       <path d="M 0 0 
L -3.5 0 
" id="m565ba08f8d" style="stroke:#000000;stroke-width:0.8;"/>
      </defs>
      <g>
       <use style="stroke:#000000;stroke-width:0.8;" x="87.644375" xlink:href="#m565ba08f8d" y="273.312"/>
      </g>
     </g>
     <g id="text_6">
      <!-- 0 -->
      <g transform="translate(68.410313 281.283562)scale(0.22 -0.22)">
       <use xlink:href="#LiberationSans-48"/>
      </g>
     </g>
    </g>
    <g id="ytick_2">
     <g id="line2d_6">
      <g>
       <use style="stroke:#000000;stroke-width:0.8;" x="87.644375" xlink:href="#m565ba08f8d" y="212.853985"/>
      </g>
     </g>
     <g id="text_7">
      <!-- 500 -->
      <g transform="translate(43.942187 220.825547)scale(0.22 -0.22)">
       <defs>
        <path d="M 51.421875 22.40625 
Q 51.421875 11.53125 44.953125 5.265625 
Q 38.484375 -0.984375 27 -0.984375 
Q 17.390625 -0.984375 11.46875 3.21875 
Q 5.5625 7.421875 4 15.375 
L 12.890625 16.40625 
Q 15.671875 6.203125 27.203125 6.203125 
Q 34.28125 6.203125 38.28125 10.46875 
Q 42.28125 14.75 42.28125 22.21875 
Q 42.28125 28.71875 38.25 32.71875 
Q 34.234375 36.71875 27.390625 36.71875 
Q 23.828125 36.71875 20.75 35.59375 
Q 17.671875 34.46875 14.59375 31.78125 
L 6 31.78125 
L 8.296875 68.796875 
L 47.40625 68.796875 
L 47.40625 61.328125 
L 16.3125 61.328125 
L 14.984375 39.5 
Q 20.703125 43.890625 29.203125 43.890625 
Q 39.359375 43.890625 45.390625 37.9375 
Q 51.421875 31.984375 51.421875 22.40625 
z
" id="LiberationSans-53"/>
       </defs>
       <use xlink:href="#LiberationSans-53"/>
       <use x="55.615234" xlink:href="#LiberationSans-48"/>
       <use x="111.230469" xlink:href="#LiberationSans-48"/>
      </g>
     </g>
    </g>
    <g id="ytick_3">
     <g id="line2d_7">
      <g>
       <use style="stroke:#000000;stroke-width:0.8;" x="87.644375" xlink:href="#m565ba08f8d" y="152.395969"/>
      </g>
     </g>
     <g id="text_8">
      <!-- 1000 -->
      <g transform="translate(31.708125 160.367532)scale(0.22 -0.22)">
       <use xlink:href="#LiberationSans-49"/>
       <use x="55.615234" xlink:href="#LiberationSans-48"/>
       <use x="111.230469" xlink:href="#LiberationSans-48"/>
       <use x="166.845703" xlink:href="#LiberationSans-48"/>
      </g>
     </g>
    </g>
    <g id="ytick_4">
     <g id="line2d_8">
      <g>
       <use style="stroke:#000000;stroke-width:0.8;" x="87.644375" xlink:href="#m565ba08f8d" y="91.937954"/>
      </g>
     </g>
     <g id="text_9">
      <!-- 1500 -->
      <g transform="translate(31.708125 99.909517)scale(0.22 -0.22)">
       <use xlink:href="#LiberationSans-49"/>
       <use x="55.615234" xlink:href="#LiberationSans-53"/>
       <use x="111.230469" xlink:href="#LiberationSans-48"/>
       <use x="166.845703" xlink:href="#LiberationSans-48"/>
      </g>
     </g>
    </g>
    <g id="ytick_5">
     <g id="line2d_9">
      <g>
       <use style="stroke:#000000;stroke-width:0.8;" x="87.644375" xlink:href="#m565ba08f8d" y="31.479939"/>
      </g>
     </g>
     <g id="text_10">
      <!-- 2000 -->
      <g transform="translate(31.708125 39.451501)scale(0.22 -0.22)">
       <use xlink:href="#LiberationSans-50"/>
       <use x="55.615234" xlink:href="#LiberationSans-48"/>
       <use x="111.230469" xlink:href="#LiberationSans-48"/>
       <use x="166.845703" xlink:href="#LiberationSans-48"/>
      </g>
     </g>
    </g>
    <g id="text_11">
     <!-- Count -->
     <g transform="translate(23.143125 169.607094)rotate(-90)scale(0.22 -0.22)">
      <defs>
       <path d="M 38.671875 62.203125 
Q 27.25 62.203125 20.890625 54.859375 
Q 14.546875 47.515625 14.546875 34.71875 
Q 14.546875 22.078125 21.15625 14.375 
Q 27.78125 6.6875 39.0625 6.6875 
Q 53.515625 6.6875 60.796875 21 
L 68.40625 17.1875 
Q 64.15625 8.296875 56.46875 3.65625 
Q 48.78125 -0.984375 38.625 -0.984375 
Q 28.21875 -0.984375 20.625 3.34375 
Q 13.03125 7.671875 9.046875 15.703125 
Q 5.078125 23.734375 5.078125 34.71875 
Q 5.078125 51.171875 13.96875 60.5 
Q 22.859375 69.828125 38.578125 69.828125 
Q 49.5625 69.828125 56.9375 65.53125 
Q 64.3125 61.234375 67.78125 52.78125 
L 58.9375 49.859375 
Q 56.546875 55.859375 51.25 59.03125 
Q 45.953125 62.203125 38.671875 62.203125 
z
" id="LiberationSans-67"/>
       <path d="M 15.328125 52.828125 
L 15.328125 19.34375 
Q 15.328125 14.109375 16.359375 11.21875 
Q 17.390625 8.34375 19.625 7.078125 
Q 21.875 5.8125 26.21875 5.8125 
Q 32.5625 5.8125 36.21875 10.15625 
Q 39.890625 14.5 39.890625 22.21875 
L 39.890625 52.828125 
L 48.6875 52.828125 
L 48.6875 11.28125 
Q 48.6875 2.046875 48.96875 0 
L 40.671875 0 
Q 40.625 0.25 40.578125 1.3125 
Q 40.53125 2.390625 40.453125 3.78125 
Q 40.375 5.171875 40.28125 9.03125 
L 40.140625 9.03125 
Q 37.109375 3.5625 33.125 1.28125 
Q 29.15625 -0.984375 23.25 -0.984375 
Q 14.546875 -0.984375 10.515625 3.34375 
Q 6.5 7.671875 6.5 17.625 
L 6.5 52.828125 
z
" id="LiberationSans-117"/>
       <path d="M 27.046875 0.390625 
Q 22.703125 -0.78125 18.171875 -0.78125 
Q 7.625 -0.78125 7.625 11.1875 
L 7.625 46.4375 
L 1.515625 46.4375 
L 1.515625 52.828125 
L 7.953125 52.828125 
L 10.546875 64.65625 
L 16.40625 64.65625 
L 16.40625 52.828125 
L 26.171875 52.828125 
L 26.171875 46.4375 
L 16.40625 46.4375 
L 16.40625 13.09375 
Q 16.40625 9.28125 17.640625 7.734375 
Q 18.890625 6.203125 21.96875 6.203125 
Q 23.734375 6.203125 27.046875 6.890625 
z
" id="LiberationSans-116"/>
      </defs>
      <use xlink:href="#LiberationSans-67"/>
      <use x="72.216797" xlink:href="#LiberationSans-111"/>
      <use x="127.832031" xlink:href="#LiberationSans-117"/>
      <use x="183.447266" xlink:href="#LiberationSans-110"/>
      <use x="239.0625" xlink:href="#LiberationSans-116"/>
     </g>
    </g>
   </g>
   <g id="patch_103">
    <path d="M 87.644375 273.312 
L 87.644375 7.2 
" style="fill:none;stroke:#000000;stroke-linecap:square;stroke-linejoin:miter;stroke-width:0.8;"/>
   </g>
   <g id="patch_104">
    <path d="M 444.764375 273.312 
L 444.764375 7.2 
" style="fill:none;stroke:#000000;stroke-linecap:square;stroke-linejoin:miter;stroke-width:0.8;"/>
   </g>
   <g id="patch_105">
    <path d="M 87.644375 273.312 
L 444.764375 273.312 
" style="fill:none;stroke:#000000;stroke-linecap:square;stroke-linejoin:miter;stroke-width:0.8;"/>
   </g>
   <g id="patch_106">
    <path d="M 87.644375 7.2 
L 444.764375 7.2 
" style="fill:none;stroke:#000000;stroke-linecap:square;stroke-linejoin:miter;stroke-width:0.8;"/>
   </g>
   <g id="legend_1">
    <g id="patch_107">
     <path d="M 269.214688 42.943125 
L 313.214688 42.943125 
L 313.214688 27.543125 
L 269.214688 27.543125 
z
" style="fill:#0066ff;fill-opacity:0.5;"/>
    </g>
    <g id="text_12">
     <!-- Normal -->
     <g style="fill:#262626;" transform="translate(330.814688 42.943125)scale(0.22 -0.22)">
      <defs>
       <path d="M 52.828125 0 
L 16.015625 58.59375 
L 16.265625 53.859375 
L 16.5 45.703125 
L 16.5 0 
L 8.203125 0 
L 8.203125 68.796875 
L 19.046875 68.796875 
L 56.25 9.8125 
Q 55.671875 19.390625 55.671875 23.6875 
L 55.671875 68.796875 
L 64.0625 68.796875 
L 64.0625 0 
z
" id="LiberationSans-78"/>
      </defs>
      <use xlink:href="#LiberationSans-78"/>
      <use x="72.216797" xlink:href="#LiberationSans-111"/>
      <use x="127.832031" xlink:href="#LiberationSans-114"/>
      <use x="161.132812" xlink:href="#LiberationSans-109"/>
      <use x="244.433594" xlink:href="#LiberationSans-97"/>
      <use x="300.048828" xlink:href="#LiberationSans-108"/>
     </g>
    </g>
    <g id="patch_108">
     <path d="M 269.214688 74.45125 
L 313.214688 74.45125 
L 313.214688 59.05125 
L 269.214688 59.05125 
z
" style="fill:#ff0000;fill-opacity:0.5;"/>
    </g>
    <g id="text_13">
     <!-- Abnormal -->
     <g style="fill:#262626;" transform="translate(330.814688 74.45125)scale(0.22 -0.22)">
      <defs>
       <path d="M 51.421875 26.65625 
Q 51.421875 -0.984375 31.984375 -0.984375 
Q 25.984375 -0.984375 22 1.1875 
Q 18.015625 3.375 15.53125 8.203125 
L 15.4375 8.203125 
Q 15.4375 6.6875 15.234375 3.578125 
Q 15.046875 0.484375 14.9375 0 
L 6.453125 0 
Q 6.734375 2.640625 6.734375 10.890625 
L 6.734375 72.46875 
L 15.53125 72.46875 
L 15.53125 51.8125 
Q 15.53125 48.640625 15.328125 44.34375 
L 15.53125 44.34375 
Q 17.96875 49.421875 22 51.609375 
Q 26.03125 53.8125 31.984375 53.8125 
Q 42 53.8125 46.703125 47.0625 
Q 51.421875 40.328125 51.421875 26.65625 
z
M 42.1875 26.375 
Q 42.1875 37.453125 39.25 42.234375 
Q 36.328125 47.015625 29.734375 47.015625 
Q 22.3125 47.015625 18.921875 41.9375 
Q 15.53125 36.859375 15.53125 25.828125 
Q 15.53125 15.4375 18.84375 10.46875 
Q 22.171875 5.515625 29.640625 5.515625 
Q 36.28125 5.515625 39.234375 10.421875 
Q 42.1875 15.328125 42.1875 26.375 
z
" id="LiberationSans-98"/>
      </defs>
      <use xlink:href="#LiberationSans-65"/>
      <use x="66.699219" xlink:href="#LiberationSans-98"/>
      <use x="122.314453" xlink:href="#LiberationSans-110"/>
      <use x="177.929688" xlink:href="#LiberationSans-111"/>
      <use x="233.544922" xlink:href="#LiberationSans-114"/>
      <use x="266.845703" xlink:href="#LiberationSans-109"/>
      <use x="350.146484" xlink:href="#LiberationSans-97"/>
      <use x="405.761719" xlink:href="#LiberationSans-108"/>
     </g>
    </g>
   </g>
  </g>
 </g>
 <defs>
  <clipPath id="p3b0e37df6c">
   <rect height="266.112" width="357.12" x="87.644375" y="7.2"/>
  </clipPath>
 </defs>
</svg>
